<svg xmlns="http://www.w3.org/2000/svg" width="210.519" height="132.283" x="0" y="0" baseProfile="tiny" version="1.2" viewBox="0 0 157.89 99.212"><desc><referenceFile>PocketBeagle_breadboard_handedits.svg</referenceFile></desc><desc>Fritzing breadboard generated by brd2svg</desc><path fill="#1C1A1D" d="M129.5,0c15.7,0,28.3,12.7,28.3,28.3c0,0,0,0,0,0v42.5c0,15.7-12.7,28.3-28.3,28.3c0,0,0,0,0,0H30.3C14.7,99.2,2,86.5,2,70.9V28.3C2,12.7,14.7,0,30.3,0H129.5 M17.5,89.2c0,0.7,0.6,1.3,1.3,1.3s1.3-0.6,1.3-1.3s-0.6-1.3-1.3-1.3S17.5,88.5,17.5,89.2z M17.5,82c0,0.7,0.6,1.3,1.3,1.3S20,82.7,20,82s-0.6-1.3-1.3-1.3S17.5,81.3,17.5,82L17.5,82z M24.7,89.2c0,0.7,0.6,1.3,1.3,1.3s1.3-0.6,1.3-1.3s-0.6-1.3-1.3-1.3S24.7,88.5,24.7,89.2z M24.7,82c0,0.7,0.6,1.3,1.3,1.3s1.3-0.6,1.3-1.3s-0.6-1.3-1.3-1.3S24.7,81.3,24.7,82L24.7,82z M31.9,89.2c0,0.7,0.6,1.3,1.3,1.3c0.7,0,1.3-0.6,1.3-1.3c0,0,0,0,0,0c0-0.7-0.6-1.3-1.3-1.3C32.4,87.9,31.9,88.5,31.9,89.2z M31.9,82c0,0.7,0.6,1.3,1.3,1.3c0.7,0,1.3-0.6,1.3-1.3c0,0,0,0,0,0c0-0.7-0.6-1.3-1.3-1.3C32.4,80.7,31.9,81.3,31.9,82C31.9,82,31.9,82,31.9,82z M39.1,89.2c0,0.7,0.6,1.3,1.3,1.3c0.7,0,1.3-0.6,1.3-1.3s-0.6-1.3-1.3-1.3C39.6,87.9,39.1,88.5,39.1,89.2z M39.1,82c0,0.7,0.6,1.3,1.3,1.3c0.7,0,1.3-0.6,1.3-1.3s-0.6-1.3-1.3-1.3C39.6,80.7,39.1,81.3,39.1,82L39.1,82z M46.3,89.2c0,0.7,0.6,1.3,1.3,1.3c0.7,0,1.3-0.6,1.3-1.3s-0.6-1.3-1.3-1.3C46.8,87.9,46.3,88.5,46.3,89.2z M46.3,82c0,0.7,0.6,1.3,1.3,1.3c0.7,0,1.3-0.6,1.3-1.3s-0.6-1.3-1.3-1.3C46.8,80.7,46.3,81.3,46.3,82L46.3,82z M53.5,89.2c0,0.7,0.6,1.3,1.3,1.3c0.7,0,1.3-0.6,1.3-1.3s-0.6-1.3-1.3-1.3C54,87.9,53.5,88.5,53.5,89.2z M53.5,82c0,0.7,0.6,1.3,1.3,1.3c0.7,0,1.3-0.6,1.3-1.3s-0.6-1.3-1.3-1.3C54,80.7,53.5,81.3,53.5,82L53.5,82z M60.7,89.2c0,0.7,0.6,1.3,1.3,1.3c0.7,0,1.3-0.6,1.3-1.3s-0.6-1.3-1.3-1.3C61.2,87.9,60.7,88.5,60.7,89.2z M60.7,82c0,0.7,0.6,1.3,1.3,1.3c0.7,0,1.3-0.6,1.3-1.3s-0.6-1.3-1.3-1.3C61.2,80.7,60.7,81.3,60.7,82L60.7,82z M67.9,89.2c0,0.7,0.6,1.3,1.3,1.3c0.7,0,1.3-0.6,1.3-1.3c0,0,0,0,0,0c0-0.7-0.6-1.3-1.3-1.3C68.4,87.9,67.9,88.5,67.9,89.2C67.9,89.2,67.9,89.2,67.9,89.2z M67.9,82c0,0.7,0.6,1.3,1.3,1.3c0.7,0,1.3-0.6,1.3-1.3c0,0,0,0,0,0c0-0.7-0.6-1.3-1.3-1.3C68.4,80.7,67.9,81.3,67.9,82C67.9,82,67.9,82,67.9,82z M75.1,89.2c0,0.7,0.6,1.3,1.3,1.3c0.7,0,1.3-0.6,1.3-1.3c0,0,0,0,0,0c0-0.7-0.6-1.3-1.3-1.3C75.6,87.9,75.1,88.5,75.1,89.2C75.1,89.2,75.1,89.2,75.1,89.2z M75.1,82c0,0.7,0.6,1.3,1.3,1.3c0.7,0,1.3-0.6,1.3-1.3c0,0,0,0,0,0c0-0.7-0.6-1.3-1.3-1.3C75.6,80.7,75.1,81.3,75.1,82C75.1,82,75.1,82,75.1,82z M82.3,89.2c0,0.7,0.6,1.3,1.3,1.3c0.7,0,1.3-0.6,1.3-1.3c0,0,0,0,0,0c0-0.7-0.6-1.3-1.3-1.3C82.8,87.9,82.3,88.5,82.3,89.2C82.3,89.2,82.3,89.2,82.3,89.2z M82.3,82c0,0.7,0.6,1.3,1.3,1.3c0.7,0,1.3-0.6,1.3-1.3c0,0,0,0,0,0c0-0.7-0.6-1.3-1.3-1.3C82.8,80.7,82.3,81.3,82.3,82C82.3,82,82.3,82,82.3,82z M89.5,89.2c0,0.7,0.6,1.3,1.3,1.3c0.7,0,1.3-0.6,1.3-1.3c0,0,0,0,0,0c0-0.7-0.6-1.3-1.3-1.3C90,87.9,89.5,88.5,89.5,89.2C89.5,89.2,89.5,89.2,89.5,89.2z M89.5,82c0,0.7,0.6,1.3,1.3,1.3c0.7,0,1.3-0.6,1.3-1.3c0,0,0,0,0,0c0-0.7-0.6-1.3-1.3-1.3C90,80.7,89.5,81.3,89.5,82C89.5,82,89.5,82,89.5,82z M96.7,89.2c0,0.7,0.6,1.3,1.3,1.3c0.7,0,1.3-0.6,1.3-1.3c0,0,0,0,0,0c0-0.7-0.6-1.3-1.3-1.3C97.2,87.9,96.7,88.5,96.7,89.2C96.7,89.2,96.7,89.2,96.7,89.2z M96.7,82c0,0.7,0.6,1.3,1.3,1.3c0.7,0,1.3-0.6,1.3-1.3c0,0,0,0,0,0c0-0.7-0.6-1.3-1.3-1.3C97.2,80.7,96.7,81.3,96.7,82C96.7,82,96.7,82,96.7,82z M103.9,89.2c0,0.7,0.6,1.3,1.3,1.3c0.7,0,1.3-0.6,1.3-1.3c0,0,0,0,0,0c0-0.7-0.6-1.3-1.3-1.3C104.4,87.9,103.9,88.5,103.9,89.2C103.9,89.2,103.9,89.2,103.9,89.2z M103.9,82c0,0.7,0.6,1.3,1.3,1.3c0.7,0,1.3-0.6,1.3-1.3c0,0,0,0,0,0c0-0.7-0.6-1.3-1.3-1.3C104.4,80.7,103.9,81.3,103.9,82C103.9,82,103.9,82,103.9,82z M111.1,89.2c0,0.7,0.6,1.3,1.3,1.3c0.7,0,1.3-0.6,1.3-1.3c0,0,0,0,0,0c0-0.7-0.6-1.3-1.3-1.3C111.6,87.9,111.1,88.5,111.1,89.2C111.1,89.2,111.1,89.2,111.1,89.2z M111.1,82c0,0.7,0.6,1.3,1.3,1.3c0.7,0,1.3-0.6,1.3-1.3c0,0,0,0,0,0c0-0.7-0.6-1.3-1.3-1.3C111.6,80.7,111.1,81.3,111.1,82C111.1,82,111.1,82,111.1,82z M118.3,89.2c0,0.7,0.6,1.3,1.3,1.3c0.7,0,1.3-0.6,1.3-1.3c0,0,0,0,0,0c0-0.7-0.6-1.3-1.3-1.3C118.8,87.9,118.3,88.5,118.3,89.2C118.3,89.2,118.3,89.2,118.3,89.2z M118.3,82c0,0.7,0.6,1.3,1.3,1.3c0.7,0,1.3-0.6,1.3-1.3c0,0,0,0,0,0c0-0.7-0.6-1.3-1.3-1.3C118.8,80.7,118.3,81.3,118.3,82C118.3,82,118.3,82,118.3,82z M125.5,89.2c0,0.7,0.6,1.3,1.3,1.3c0.7,0,1.3-0.6,1.3-1.3c0,0,0,0,0,0c0-0.7-0.6-1.3-1.3-1.3C126,87.9,125.5,88.5,125.5,89.2C125.5,89.2,125.5,89.2,125.5,89.2z M125.5,82c0,0.7,0.6,1.3,1.3,1.3c0.7,0,1.3-0.6,1.3-1.3c0,0,0,0,0,0c0-0.7-0.6-1.3-1.3-1.3C126,80.7,125.5,81.3,125.5,82C125.5,82,125.5,82,125.5,82z M132.7,89.2c0,0.7,0.6,1.3,1.3,1.3c0.7,0,1.3-0.6,1.3-1.3s-0.6-1.3-1.3-1.3C133.2,87.9,132.7,88.5,132.7,89.2z M132.7,82c0,0.7,0.6,1.3,1.3,1.3c0.7,0,1.3-0.6,1.3-1.3s-0.6-1.3-1.3-1.3C133.2,80.7,132.7,81.3,132.7,82z M139.9,89.2c0,0.7,0.6,1.3,1.3,1.3c0.7,0,1.3-0.6,1.3-1.3s-0.6-1.3-1.3-1.3C140.4,87.9,139.9,88.5,139.9,89.2z M139.9,82c0,0.7,0.6,1.3,1.3,1.3c0.7,0,1.3-0.6,1.3-1.3s-0.6-1.3-1.3-1.3C140.4,80.7,139.9,81.3,139.9,82z M17.5,17.2c0,0.7,0.6,1.3,1.3,1.3s1.3-0.6,1.3-1.3s-0.6-1.3-1.3-1.3S17.5,16.5,17.5,17.2z M17.5,10c0,0.7,0.6,1.3,1.3,1.3S20,10.7,20,10s-0.6-1.3-1.3-1.3S17.5,9.3,17.5,10L17.5,10z M24.7,17.2c0,0.7,0.6,1.3,1.3,1.3s1.3-0.6,1.3-1.3s-0.6-1.3-1.3-1.3S24.7,16.5,24.7,17.2z M24.7,10c0,0.7,0.6,1.3,1.3,1.3s1.3-0.6,1.3-1.3s-0.6-1.3-1.3-1.3S24.7,9.3,24.7,10L24.7,10z M31.9,17.2c0,0.7,0.6,1.3,1.3,1.3c0.7,0,1.3-0.6,1.3-1.3c0,0,0,0,0,0c0-0.7-0.6-1.3-1.3-1.3C32.4,15.9,31.9,16.5,31.9,17.2z M31.9,10c0,0.7,0.6,1.3,1.3,1.3c0.7,0,1.3-0.6,1.3-1.3c0,0,0,0,0,0c0-0.7-0.6-1.3-1.3-1.3C32.4,8.7,31.9,9.3,31.9,10C31.9,10,31.9,10,31.9,10z M39.1,17.2c0,0.7,0.6,1.3,1.3,1.3c0.7,0,1.3-0.6,1.3-1.3s-0.6-1.3-1.3-1.3C39.6,15.9,39.1,16.5,39.1,17.2z M39.1,10c0,0.7,0.6,1.3,1.3,1.3c0.7,0,1.3-0.6,1.3-1.3S41,8.7,40.3,8.7C39.6,8.7,39.1,9.3,39.1,10L39.1,10z M46.3,17.2c0,0.7,0.6,1.3,1.3,1.3c0.7,0,1.3-0.6,1.3-1.3s-0.6-1.3-1.3-1.3C46.8,15.9,46.3,16.5,46.3,17.2z M46.3,10c0,0.7,0.6,1.3,1.3,1.3c0.7,0,1.3-0.6,1.3-1.3s-0.6-1.3-1.3-1.3C46.8,8.7,46.3,9.3,46.3,10L46.3,10z M53.5,17.2c0,0.7,0.6,1.3,1.3,1.3c0.7,0,1.3-0.6,1.3-1.3s-0.6-1.3-1.3-1.3C54,15.9,53.5,16.5,53.5,17.2z M53.5,10c0,0.7,0.6,1.3,1.3,1.3c0.7,0,1.3-0.6,1.3-1.3s-0.6-1.3-1.3-1.3C54,8.7,53.5,9.3,53.5,10L53.5,10z M60.7,17.2c0,0.7,0.6,1.3,1.3,1.3c0.7,0,1.3-0.6,1.3-1.3s-0.6-1.3-1.3-1.3C61.2,15.9,60.7,16.5,60.7,17.2z M60.7,10c0,0.7,0.6,1.3,1.3,1.3c0.7,0,1.3-0.6,1.3-1.3s-0.6-1.3-1.3-1.3C61.2,8.7,60.7,9.3,60.7,10L60.7,10z M67.9,17.2c0,0.7,0.6,1.3,1.3,1.3s1.3-0.6,1.3-1.3c0,0,0,0,0,0c0-0.7-0.6-1.3-1.3-1.3S67.9,16.5,67.9,17.2C67.9,17.2,67.9,17.2,67.9,17.2z M67.9,10c0,0.7,0.6,1.3,1.3,1.3s1.3-0.6,1.3-1.3c0,0,0,0,0,0c0-0.7-0.6-1.3-1.3-1.3S67.9,9.3,67.9,10C67.9,10,67.9,10,67.9,10z M75.1,17.2c0,0.7,0.6,1.3,1.3,1.3s1.3-0.6,1.3-1.3c0,0,0,0,0,0c0-0.7-0.6-1.3-1.3-1.3S75.1,16.5,75.1,17.2C75.1,17.2,75.1,17.2,75.1,17.2z M75.1,10c0,0.7,0.6,1.3,1.3,1.3s1.3-0.6,1.3-1.3c0,0,0,0,0,0c0-0.7-0.6-1.3-1.3-1.3S75.1,9.3,75.1,10C75.1,10,75.1,10,75.1,10z M82.3,17.2c0,0.7,0.6,1.3,1.3,1.3s1.3-0.6,1.3-1.3c0,0,0,0,0,0c0-0.7-0.6-1.3-1.3-1.3S82.3,16.5,82.3,17.2C82.3,17.2,82.3,17.2,82.3,17.2z M82.3,10c0,0.7,0.6,1.3,1.3,1.3s1.3-0.6,1.3-1.3c0,0,0,0,0,0c0-0.7-0.6-1.3-1.3-1.3S82.3,9.3,82.3,10C82.3,10,82.3,10,82.3,10z M89.5,17.2c0,0.7,0.6,1.3,1.3,1.3s1.3-0.6,1.3-1.3c0,0,0,0,0,0c0-0.7-0.6-1.3-1.3-1.3S89.5,16.5,89.5,17.2C89.5,17.2,89.5,17.2,89.5,17.2z M89.5,10c0,0.7,0.6,1.3,1.3,1.3S92,10.7,92,10c0,0,0,0,0,0c0-0.7-0.6-1.3-1.3-1.3S89.5,9.3,89.5,10C89.5,10,89.5,10,89.5,10z M96.7,17.2c0,0.7,0.6,1.3,1.3,1.3s1.3-0.6,1.3-1.3c0,0,0,0,0,0c0-0.7-0.6-1.3-1.3-1.3S96.7,16.5,96.7,17.2C96.7,17.2,96.7,17.2,96.7,17.2z M96.7,10c0,0.7,0.6,1.3,1.3,1.3s1.3-0.6,1.3-1.3c0,0,0,0,0,0c0-0.7-0.6-1.3-1.3-1.3S96.7,9.3,96.7,10C96.7,10,96.7,10,96.7,10z M103.9,17.2c0,0.7,0.6,1.3,1.3,1.3s1.3-0.6,1.3-1.3c0,0,0,0,0,0c0-0.7-0.6-1.3-1.3-1.3S103.9,16.5,103.9,17.2C103.9,17.2,103.9,17.2,103.9,17.2z M103.9,10c0,0.7,0.6,1.3,1.3,1.3s1.3-0.6,1.3-1.3c0,0,0,0,0,0c0-0.7-0.6-1.3-1.3-1.3S103.9,9.3,103.9,10C103.9,10,103.9,10,103.9,10z M111.1,17.2c0,0.7,0.6,1.3,1.3,1.3s1.3-0.6,1.3-1.3c0,0,0,0,0,0c0-0.7-0.6-1.3-1.3-1.3S111.1,16.5,111.1,17.2C111.1,17.2,111.1,17.2,111.1,17.2z M111.1,10c0,0.7,0.6,1.3,1.3,1.3s1.3-0.6,1.3-1.3c0,0,0,0,0,0c0-0.7-0.6-1.3-1.3-1.3S111.1,9.3,111.1,10C111.1,10,111.1,10,111.1,10z M118.3,17.2c0,0.7,0.6,1.3,1.3,1.3s1.3-0.6,1.3-1.3c0,0,0,0,0,0c0-0.7-0.6-1.3-1.3-1.3S118.3,16.5,118.3,17.2C118.3,17.2,118.3,17.2,118.3,17.2z M118.3,10c0,0.7,0.6,1.3,1.3,1.3s1.3-0.6,1.3-1.3c0,0,0,0,0,0c0-0.7-0.6-1.3-1.3-1.3S118.3,9.3,118.3,10C118.3,10,118.3,10,118.3,10z M125.5,17.2c0,0.7,0.6,1.3,1.3,1.3s1.3-0.6,1.3-1.3c0,0,0,0,0,0c0-0.7-0.6-1.3-1.3-1.3S125.5,16.5,125.5,17.2C125.5,17.2,125.5,17.2,125.5,17.2z M125.5,10c0,0.7,0.6,1.3,1.3,1.3s1.3-0.6,1.3-1.3c0,0,0,0,0,0c0-0.7-0.6-1.3-1.3-1.3S125.5,9.3,125.5,10C125.5,10,125.5,10,125.5,10z M132.7,17.2c0,0.7,0.6,1.3,1.3,1.3c0.7,0,1.3-0.6,1.3-1.3s-0.6-1.3-1.3-1.3C133.2,15.9,132.7,16.5,132.7,17.2z M132.7,10c0,0.7,0.6,1.3,1.3,1.3c0.7,0,1.3-0.6,1.3-1.3s-0.6-1.3-1.3-1.3C133.2,8.7,132.7,9.3,132.7,10z M139.9,17.2c0,0.7,0.6,1.3,1.3,1.3c0.7,0,1.3-0.6,1.3-1.3s-0.6-1.3-1.3-1.3C140.4,15.9,139.9,16.5,139.9,17.2z M139.9,10c0,0.7,0.6,1.3,1.3,1.3c0.7,0,1.3-0.6,1.3-1.3s-0.6-1.3-1.3-1.3C140.4,8.7,139.9,9.3,139.9,10z"/><title>layer 21</title><line x1="51.2" x2="51.2" y1="79.3" y2="92.5" fill="none" stroke="#FFF" stroke-linecap="round" stroke-width=".72"/><line x1="51.2" x2="51.2" y1="19.5" y2="6.3" fill="none" stroke="#FFF" stroke-linecap="round" stroke-width=".72"/><line x1="87.2" x2="87.2" y1="79.3" y2="92.5" fill="none" stroke="#FFF" stroke-linecap="round" stroke-width=".72"/><line x1="123.2" x2="123.2" y1="79.3" y2="92.5" fill="none" stroke="#FFF" stroke-linecap="round" stroke-width=".72"/><line x1="87.2" x2="87.2" y1="19.5" y2="6.3" fill="none" stroke="#FFF" stroke-linecap="round" stroke-width=".72"/><line x1="123.2" x2="123.2" y1="19.5" y2="6.3" fill="none" stroke="#FFF" stroke-linecap="round" stroke-width=".72"/><line x1="14.9" x2="17.1" y1="75.1" y2="75.1" fill="none" stroke="#FFF" stroke-linecap="round" stroke-width=".72"/><line x1="21.4" x2="23.6" y1="75.1" y2="75.1" fill="none" stroke="#FFF" stroke-linecap="round" stroke-width=".72"/><line x1="8.5" x2="10.6" y1="75.1" y2="75.1" fill="none" stroke="#FFF" stroke-linecap="round" stroke-width=".72"/><line x1="27.9" x2="30.1" y1="75.1" y2="75.1" fill="none" stroke="#FFF" stroke-linecap="round" stroke-width=".72"/><line x1="16.4" x2="16.4" y1="22.5" y2="20.4" fill="none" stroke="#FFF" stroke-linecap="round" stroke-width=".72"/><circle cx="94.9" cy="79.8" r=".5" fill="none" stroke="#FFF" stroke-width="1.417"/><g><title>text:OSD3358</title><g><g><text fill="#FFF" font-family="OCRA" font-size="2.673" transform="matrix(1 0 0 1 97.0243 78.6349)">OSD3358</text></g></g></g><g><title>text:PocketBeagle Rev A2</title><g><g><text fill="#FFF" font-family="OCRA" font-size="3.341" transform="matrix(1 0 0 1 51.2778 4.9648)">PocketBeagle Rev A2</text></g></g></g><g><title>text:beagleboard.org/pocket</title><g><g><text fill="#FFF" font-family="OCRA" font-size="3.341" transform="matrix(1 0 0 1 46.7489 96.8365)">beagleboard.org/pocket</text></g></g></g><g><title>text:P1</title><g><g><text fill="#FFF" font-family="OCRA" font-size="4.343" transform="matrix(1 0 0 1 25.9952 98.6653)">P1</text></g></g></g><g><title>text:P2</title><g><g><text fill="#FFF" font-family="OCRA" font-size="4.343" transform="matrix(1 0 0 1 26.3552 5.9727)">P2</text></g></g></g><g><title>text:1</title><g><g><text fill="#FFF" font-family="OCRA" font-size="2.138" transform="matrix(1 0 0 1 18.298 95.0452)">1</text></g></g></g><g><title>text:2</title><g><g><text fill="#FFF" font-family="OCRA" font-size="2.138" transform="matrix(1 0 0 1 17.938 7.2054)">2</text></g></g></g><g><title>text:36</title><g><g><text fill="#FFF" font-family="OCRA" font-size="2.138" transform="matrix(1 0 0 1 144.904 11.269)">36</text></g></g></g><g><title>text:35</title><g><g><text fill="#FFF" font-family="OCRA" font-size="2.138" transform="matrix(1 0 0 1 144.904 90.4688)">35</text></g></g></g><g><title>text:35</title><g><g><text fill="#FFF" font-family="OCRA" font-size="2.138" transform="matrix(1 0 0 1 144.904 18.469)">35</text></g></g></g><g><title>text:36</title><g><g><text fill="#FFF" font-family="OCRA" font-size="2.138" transform="matrix(1 0 0 1 144.904 83.2688)">36</text></g></g></g><g><title>text:2</title><g><g><text fill="#FFF" font-family="OCRA" font-size="2.138" transform="matrix(1 0 0 1 17.938 78.6926)">2</text></g></g></g><g><title>text:1</title><g><g><text fill="#FFF" font-family="OCRA" font-size="2.138" transform="matrix(1 0 0 1 17.938 23.0454)">1</text></g></g></g><g><title>element:P1</title><g><title>package:TH-2X18-(35MIL-DIA)-W/O-SILK</title></g></g><g><title>element:P2</title><g><title>package:TH-2X18-(35MIL-DIA)-W/O-SILK</title></g></g><g><title>element:POWER</title><g><title>package:btn_kmr2_4.6x2.8</title><line x1="18.7" x2="18.7" y1="59" y2="58.8" fill="none" stroke="#FFF" stroke-linecap="round" stroke-width=".576"/><line x1="32" x2="32" y1="59" y2="58.8" fill="none" stroke="#FFF" stroke-linecap="round" stroke-width=".576"/><line x1="18.7" x2="32" y1="54.6" y2="54.6" fill="none" stroke="#FFF" stroke-linecap="round" stroke-width=".576"/><line x1="18.7" x2="32" y1="63.1" y2="63.1" fill="none" stroke="#FFF" stroke-linecap="round" stroke-width=".576"/><circle cx="25.4" cy="58.9" r="2" fill="none" stroke="#FFF" stroke-width=".576"/></g></g><g><title>element:PWR</title><g><title>package:0603-LED</title><line x1="12.9" x2="11.9" y1="21.5" y2="20.5" fill="none" stroke="#FFF" stroke-linecap="round" stroke-width=".432"/><line x1="12.9" x2="11.9" y1="21.5" y2="22.4" fill="none" stroke="#FFF" stroke-linecap="round" stroke-width=".432"/><line x1="11.9" x2="11.9" y1="22.4" y2="20.5" fill="none" stroke="#FFF" stroke-linecap="round" stroke-width=".432"/><line x1="12.3" x2="12.3" y1="22.1" y2="20.8" fill="none" stroke="#FFF" stroke-linecap="round" stroke-width=".432"/><line x1="12.6" x2="12.6" y1="21.7" y2="21.2" fill="none" stroke="#FFF" stroke-linecap="round" stroke-width=".432"/></g></g><g><title>element:TP1</title><g><title>package:B1,27</title></g></g><g><title>element:U1</title><g><title>package:OSD335X-BGA-256</title><line x1="34.7" x2="34.7" y1="19.7" y2="79.2" fill="none" stroke="#FFF" stroke-linecap="round" stroke-width=".36"/><line x1="34.7" x2="94.3" y1="79.2" y2="79.2" fill="none" stroke="#FFF" stroke-linecap="round" stroke-width=".36"/><line x1="94.3" x2="94.3" y1="79.2" y2="19.7" fill="none" stroke="#FFF" stroke-linecap="round" stroke-width=".36"/><line x1="94.3" x2="34.7" y1="19.7" y2="19.7" fill="none" stroke="#FFF" stroke-linecap="round" stroke-width=".36"/></g></g><g><title>element:USR0</title><g><title>package:0603-LED</title><line x1="29" x2="30" y1="71.6" y2="70.7" fill="none" stroke="#FFF" stroke-linecap="round" stroke-width=".432"/><line x1="29" x2="28" y1="71.6" y2="70.7" fill="none" stroke="#FFF" stroke-linecap="round" stroke-width=".432"/><line x1="28" x2="30" y1="70.7" y2="70.7" fill="none" stroke="#FFF" stroke-linecap="round" stroke-width=".432"/><line x1="28.4" x2="29.6" y1="71" y2="71" fill="none" stroke="#FFF" stroke-linecap="round" stroke-width=".432"/><line x1="28.7" x2="29.2" y1="71.3" y2="71.3" fill="none" stroke="#FFF" stroke-linecap="round" stroke-width=".432"/></g></g><g><title>element:USR1</title><g><title>package:0603-LED</title><line x1="22.5" x2="23.5" y1="71.6" y2="70.7" fill="none" stroke="#FFF" stroke-linecap="round" stroke-width=".432"/><line x1="22.5" x2="21.5" y1="71.6" y2="70.7" fill="none" stroke="#FFF" stroke-linecap="round" stroke-width=".432"/><line x1="21.5" x2="23.5" y1="70.7" y2="70.7" fill="none" stroke="#FFF" stroke-linecap="round" stroke-width=".432"/><line x1="21.9" x2="23.1" y1="71" y2="71" fill="none" stroke="#FFF" stroke-linecap="round" stroke-width=".432"/><line x1="22.2" x2="22.8" y1="71.3" y2="71.3" fill="none" stroke="#FFF" stroke-linecap="round" stroke-width=".432"/></g></g><g><title>element:USR2</title><g><title>package:0603-LED</title><line x1="16" x2="17" y1="71.6" y2="70.7" fill="none" stroke="#FFF" stroke-linecap="round" stroke-width=".432"/><line x1="16" x2="15" y1="71.6" y2="70.7" fill="none" stroke="#FFF" stroke-linecap="round" stroke-width=".432"/><line x1="15" x2="17" y1="70.7" y2="70.7" fill="none" stroke="#FFF" stroke-linecap="round" stroke-width=".432"/><line x1="15.4" x2="16.6" y1="71" y2="71" fill="none" stroke="#FFF" stroke-linecap="round" stroke-width=".432"/><line x1="15.8" x2="16.3" y1="71.3" y2="71.3" fill="none" stroke="#FFF" stroke-linecap="round" stroke-width=".432"/></g></g><g><title>element:USR3</title><g><title>package:0603-LED</title><line x1="9.5" x2="10.5" y1="71.6" y2="70.7" fill="none" stroke="#FFF" stroke-linecap="round" stroke-width=".432"/><line x1="9.5" x2="8.6" y1="71.6" y2="70.7" fill="none" stroke="#FFF" stroke-linecap="round" stroke-width=".432"/><line x1="8.6" x2="10.5" y1="70.7" y2="70.7" fill="none" stroke="#FFF" stroke-linecap="round" stroke-width=".432"/><line x1="8.9" x2="10.2" y1="71" y2="71" fill="none" stroke="#FFF" stroke-linecap="round" stroke-width=".432"/><line x1="9.3" x2="9.8" y1="71.3" y2="71.3" fill="none" stroke="#FFF" stroke-linecap="round" stroke-width=".432"/></g></g><g><title>element:X1</title><g><title>package:usb-microb</title><line x1="2" x2="2" y1="39" y2="60.2" fill="none" stroke="#FFF" stroke-linecap="round" stroke-width=".36"/><line x1="2" x2="2.9" y1="39" y2="39" fill="none" stroke="#FFF" stroke-linecap="round" stroke-width=".36"/><line x1="2" x2="2.9" y1="60.2" y2="60.2" fill="none" stroke="#FFF" stroke-linecap="round" stroke-width=".36"/><line x1="9.3" x2="10.6" y1="60.2" y2="60.2" fill="none" stroke="#FFF" stroke-linecap="round" stroke-width=".36"/><line x1="9.3" x2="10.6" y1="39" y2="39" fill="none" stroke="#FFF" stroke-linecap="round" stroke-width=".36"/><line x1="14.2" x2="14.2" y1="44.3" y2="44.9" fill="none" stroke="#FFF" stroke-linecap="round" stroke-width=".36"/><line x1="14.2" x2="14.2" y1="54.3" y2="54.9" fill="none" stroke="#FFF" stroke-linecap="round" stroke-width=".36"/><line x1=".9" x2="1.6" y1="45.1" y2="45.1" fill="none" stroke="#FFF" stroke-linecap="round" stroke-width=".108"/><line x1="1.6" x2="1.3" y1="45.1" y2="45.4" fill="none" stroke="#FFF" stroke-linecap="round" stroke-width=".108"/><line x1="1.6" x2="1.3" y1="45.1" y2="44.8" fill="none" stroke="#FFF" stroke-linecap="round" stroke-width=".108"/><line x1=".9" x2="1.6" y1="43.9" y2="43.9" fill="none" stroke="#FFF" stroke-linecap="round" stroke-width=".108"/><line x1="1.6" x2="1.3" y1="43.9" y2="44.2" fill="none" stroke="#FFF" stroke-linecap="round" stroke-width=".108"/><line x1="1.6" x2="1.3" y1="43.9" y2="43.7" fill="none" stroke="#FFF" stroke-linecap="round" stroke-width=".108"/><line x1=".9" x2="1.6" y1="42.8" y2="42.8" fill="none" stroke="#FFF" stroke-linecap="round" stroke-width=".108"/><line x1="1.6" x2="1.3" y1="42.8" y2="43.1" fill="none" stroke="#FFF" stroke-linecap="round" stroke-width=".108"/><line x1="1.6" x2="1.3" y1="42.8" y2="42.5" fill="none" stroke="#FFF" stroke-linecap="round" stroke-width=".108"/><line x1=".9" x2="1.6" y1="41.7" y2="41.7" fill="none" stroke="#FFF" stroke-linecap="round" stroke-width=".108"/><line x1="1.6" x2="1.3" y1="41.7" y2="42" fill="none" stroke="#FFF" stroke-linecap="round" stroke-width=".108"/><line x1="1.6" x2="1.3" y1="41.7" y2="41.4" fill="none" stroke="#FFF" stroke-linecap="round" stroke-width=".108"/><line x1=".9" x2="1.6" y1="40.5" y2="40.5" fill="none" stroke="#FFF" stroke-linecap="round" stroke-width=".108"/><line x1="1.6" x2="1.3" y1="40.5" y2="40.8" fill="none" stroke="#FFF" stroke-linecap="round" stroke-width=".108"/><line x1="1.6" x2="1.3" y1="40.5" y2="40.3" fill="none" stroke="#FFF" stroke-linecap="round" stroke-width=".108"/><line x1=".9" x2="1.6" y1="58.7" y2="58.7" fill="none" stroke="#FFF" stroke-linecap="round" stroke-width=".108"/><line x1="1.6" x2="1.3" y1="58.7" y2="59" fill="none" stroke="#FFF" stroke-linecap="round" stroke-width=".108"/><line x1="1.6" x2="1.3" y1="58.7" y2="58.4" fill="none" stroke="#FFF" stroke-linecap="round" stroke-width=".108"/><line x1=".9" x2="1.6" y1="57.5" y2="57.5" fill="none" stroke="#FFF" stroke-linecap="round" stroke-width=".108"/><line x1="1.6" x2="1.3" y1="57.5" y2="57.8" fill="none" stroke="#FFF" stroke-linecap="round" stroke-width=".108"/><line x1="1.6" x2="1.3" y1="57.5" y2="57.3" fill="none" stroke="#FFF" stroke-linecap="round" stroke-width=".108"/><line x1=".9" x2="1.6" y1="56.4" y2="56.4" fill="none" stroke="#FFF" stroke-linecap="round" stroke-width=".108"/><line x1="1.6" x2="1.3" y1="56.4" y2="56.7" fill="none" stroke="#FFF" stroke-linecap="round" stroke-width=".108"/><line x1="1.6" x2="1.3" y1="56.4" y2="56.1" fill="none" stroke="#FFF" stroke-linecap="round" stroke-width=".108"/><line x1=".9" x2="1.6" y1="55.3" y2="55.3" fill="none" stroke="#FFF" stroke-linecap="round" stroke-width=".108"/><line x1="1.6" x2="1.3" y1="55.3" y2="55.6" fill="none" stroke="#FFF" stroke-linecap="round" stroke-width=".108"/><line x1="1.6" x2="1.3" y1="55.3" y2="55" fill="none" stroke="#FFF" stroke-linecap="round" stroke-width=".108"/><line x1=".9" x2="1.6" y1="54.1" y2="54.1" fill="none" stroke="#FFF" stroke-linecap="round" stroke-width=".108"/><line x1="1.6" x2="1.3" y1="54.1" y2="54.4" fill="none" stroke="#FFF" stroke-linecap="round" stroke-width=".108"/><line x1="1.6" x2="1.3" y1="54.1" y2="53.9" fill="none" stroke="#FFF" stroke-linecap="round" stroke-width=".108"/><g><title>text:Edge of PCB</title></g></g></g><circle id="connector5pin" cx="18.7" cy="89.2" r="1.7" fill="none" stroke="#9A916C" stroke-width=".9" gorn=".4"/><rect width="3.4" height="3.4" x="17" y="87.5" fill="none" stroke="#9A916C" stroke-width=".9"/><circle id="connector6pin" cx="18.7" cy="82" r="1.7" fill="none" stroke="#9A916C" stroke-width=".9" gorn=".42"/><circle id="connector7pin" cx="25.9" cy="89.2" r="1.7" fill="none" stroke="#9A916C" stroke-width=".9" gorn=".43"/><circle id="connector8pin" cx="25.9" cy="82" r="1.7" fill="none" stroke="#9A916C" stroke-width=".9" gorn=".44"/><circle id="connector9pin" cx="33.1" cy="89.2" r="1.7" fill="none" stroke="#9A916C" stroke-width=".9" gorn=".45"/><circle id="connector10pin" cx="33.1" cy="82" r="1.7" fill="none" stroke="#9A916C" stroke-width=".9" gorn=".46"/><circle id="connector11pin" cx="40.3" cy="89.2" r="1.7" fill="none" stroke="#9A916C" stroke-width=".9" gorn=".47"/><circle id="connector12pin" cx="40.3" cy="82" r="1.7" fill="none" stroke="#9A916C" stroke-width=".9" gorn=".48"/><circle id="connector13pin" cx="47.5" cy="89.2" r="1.7" fill="none" stroke="#9A916C" stroke-width=".9" gorn=".49"/><circle id="connector14pin" cx="47.5" cy="82" r="1.7" fill="none" stroke="#9A916C" stroke-width=".9" gorn=".5"/><circle id="connector15pin" cx="54.7" cy="89.2" r="1.7" fill="none" stroke="#9A916C" stroke-width=".9" gorn=".51"/><circle id="connector16pin" cx="54.7" cy="82" r="1.7" fill="none" stroke="#9A916C" stroke-width=".9" gorn=".52"/><circle id="connector17pin" cx="61.9" cy="89.2" r="1.7" fill="none" stroke="#9A916C" stroke-width=".9" gorn=".53"/><circle id="connector18pin" cx="61.9" cy="82" r="1.7" fill="none" stroke="#9A916C" stroke-width=".9" gorn=".54"/><circle id="connector19pin" cx="69.1" cy="89.2" r="1.7" fill="none" stroke="#9A916C" stroke-width=".9" gorn=".55"/><circle id="connector20pin" cx="69.1" cy="82" r="1.7" fill="none" stroke="#9A916C" stroke-width=".9" gorn=".56"/><circle id="connector21pin" cx="76.3" cy="89.2" r="1.7" fill="none" stroke="#9A916C" stroke-width=".9" gorn=".57"/><circle id="connector22pin" cx="76.3" cy="82" r="1.7" fill="none" stroke="#9A916C" stroke-width=".9" gorn=".58"/><circle id="connector23pin" cx="83.5" cy="89.2" r="1.7" fill="none" stroke="#9A916C" stroke-width=".9" gorn=".59"/><circle id="connector24pin" cx="83.5" cy="82" r="1.7" fill="none" stroke="#9A916C" stroke-width=".9" gorn=".6"/><circle id="connector25pin" cx="90.7" cy="89.2" r="1.7" fill="none" stroke="#9A916C" stroke-width=".9" gorn=".61"/><circle id="connector26pin" cx="90.7" cy="82" r="1.7" fill="none" stroke="#9A916C" stroke-width=".9" gorn=".62"/><circle id="connector27pin" cx="97.9" cy="89.2" r="1.7" fill="none" stroke="#9A916C" stroke-width=".9" gorn=".63"/><circle id="connector28pin" cx="97.9" cy="82" r="1.7" fill="none" stroke="#9A916C" stroke-width=".9" gorn=".64"/><circle id="connector29pin" cx="105.1" cy="89.2" r="1.7" fill="none" stroke="#9A916C" stroke-width=".9" gorn=".65"/><circle id="connector30pin" cx="105.1" cy="82" r="1.7" fill="none" stroke="#9A916C" stroke-width=".9" gorn=".66"/><circle id="connector31pin" cx="112.3" cy="89.2" r="1.7" fill="none" stroke="#9A916C" stroke-width=".9" gorn=".67"/><circle id="connector32pin" cx="112.3" cy="82" r="1.7" fill="none" stroke="#9A916C" stroke-width=".9" gorn=".68"/><circle id="connector33pin" cx="119.5" cy="89.2" r="1.7" fill="none" stroke="#9A916C" stroke-width=".9" gorn=".69"/><circle id="connector34pin" cx="119.5" cy="82" r="1.7" fill="none" stroke="#9A916C" stroke-width=".9" gorn=".7"/><circle id="connector35pin" cx="126.7" cy="89.2" r="1.7" fill="none" stroke="#9A916C" stroke-width=".9" gorn=".71"/><circle id="connector36pin" cx="126.7" cy="82" r="1.7" fill="none" stroke="#9A916C" stroke-width=".9" gorn=".72"/><circle id="connector37pin" cx="133.9" cy="89.2" r="1.7" fill="none" stroke="#9A916C" stroke-width=".9" gorn=".73"/><circle id="connector38pin" cx="133.9" cy="82" r="1.7" fill="none" stroke="#9A916C" stroke-width=".9" gorn=".74"/><circle id="connector39pin" cx="141.1" cy="89.2" r="1.7" fill="none" stroke="#9A916C" stroke-width=".9" gorn=".75"/><circle id="connector40pin" cx="141.1" cy="82" r="1.7" fill="none" stroke="#9A916C" stroke-width=".9" gorn=".76"/><circle id="connector41pin" cx="18.7" cy="17.2" r="1.7" fill="none" stroke="#9A916C" stroke-width=".9" gorn=".77"/><rect width="3.4" height="3.4" x="17" y="15.5" fill="none" stroke="#9A916C" stroke-width=".9"/><circle id="connector42pin" cx="18.7" cy="10" r="1.7" fill="none" stroke="#9A916C" stroke-width=".9" gorn=".79"/><circle id="connector43pin" cx="25.9" cy="17.2" r="1.7" fill="none" stroke="#9A916C" stroke-width=".9" gorn=".8"/><circle id="connector44pin" cx="25.9" cy="10" r="1.7" fill="none" stroke="#9A916C" stroke-width=".9" gorn=".81"/><circle id="connector45pin" cx="33.1" cy="17.2" r="1.7" fill="none" stroke="#9A916C" stroke-width=".9" gorn=".82"/><circle id="connector46pin" cx="33.1" cy="10" r="1.7" fill="none" stroke="#9A916C" stroke-width=".9" gorn=".83"/><circle id="connector47pin" cx="40.3" cy="17.2" r="1.7" fill="none" stroke="#9A916C" stroke-width=".9" gorn=".84"/><circle id="connector48pin" cx="40.3" cy="10" r="1.7" fill="none" stroke="#9A916C" stroke-width=".9" gorn=".85"/><circle id="connector49pin" cx="47.5" cy="17.2" r="1.7" fill="none" stroke="#9A916C" stroke-width=".9" gorn=".86"/><circle id="connector50pin" cx="47.5" cy="10" r="1.7" fill="none" stroke="#9A916C" stroke-width=".9" gorn=".87"/><circle id="connector51pin" cx="54.7" cy="17.2" r="1.7" fill="none" stroke="#9A916C" stroke-width=".9" gorn=".88"/><circle id="connector52pin" cx="54.7" cy="10" r="1.7" fill="none" stroke="#9A916C" stroke-width=".9" gorn=".89"/><circle id="connector53pin" cx="61.9" cy="17.2" r="1.7" fill="none" stroke="#9A916C" stroke-width=".9" gorn=".9"/><circle id="connector90pin" cx="61.9" cy="10" r="1.7" fill="none" stroke="#9A916C" stroke-width=".9" gorn=".91"/><circle id="connector55pin" cx="69.1" cy="17.2" r="1.7" fill="none" stroke="#9A916C" stroke-width=".9" gorn=".92"/><circle id="connector56pin" cx="69.1" cy="10" r="1.7" fill="none" stroke="#9A916C" stroke-width=".9" gorn=".93"/><circle id="connector57pin" cx="76.3" cy="17.2" r="1.7" fill="none" stroke="#9A916C" stroke-width=".9" gorn=".94"/><circle id="connector58pin" cx="76.3" cy="10" r="1.7" fill="none" stroke="#9A916C" stroke-width=".9" gorn=".95"/><circle id="connector59pin" cx="83.5" cy="17.2" r="1.7" fill="none" stroke="#9A916C" stroke-width=".9" gorn=".96"/><circle id="connector60pin" cx="83.5" cy="10" r="1.7" fill="none" stroke="#9A916C" stroke-width=".9" gorn=".97"/><circle id="connector61pin" cx="90.7" cy="17.2" r="1.7" fill="none" stroke="#9A916C" stroke-width=".9" gorn=".98"/><circle id="connector62pin" cx="90.7" cy="10" r="1.7" fill="none" stroke="#9A916C" stroke-width=".9" gorn=".99"/><circle id="connector63pin" cx="97.9" cy="17.2" r="1.7" fill="none" stroke="#9A916C" stroke-width=".9" gorn=".1"/><circle id="connector64pin" cx="97.9" cy="10" r="1.7" fill="none" stroke="#9A916C" stroke-width=".9" gorn=".101"/><circle id="connector65pin" cx="105.1" cy="17.2" r="1.7" fill="none" stroke="#9A916C" stroke-width=".9" gorn=".102"/><circle id="connector66pin" cx="105.1" cy="10" r="1.7" fill="none" stroke="#9A916C" stroke-width=".9" gorn=".103"/><circle id="connector67pin" cx="112.3" cy="17.2" r="1.7" fill="none" stroke="#9A916C" stroke-width=".9" gorn=".104"/><circle id="connector68pin" cx="112.3" cy="10" r="1.7" fill="none" stroke="#9A916C" stroke-width=".9" gorn=".105"/><circle id="connector69pin" cx="119.5" cy="17.2" r="1.7" fill="none" stroke="#9A916C" stroke-width=".9" gorn=".106"/><circle id="connector70pin" cx="119.5" cy="10" r="1.7" fill="none" stroke="#9A916C" stroke-width=".9" gorn=".107"/><circle id="connector71pin" cx="126.7" cy="17.2" r="1.7" fill="none" stroke="#9A916C" stroke-width=".9" gorn=".108"/><circle id="connector72pin" cx="126.7" cy="10" r="1.7" fill="none" stroke="#9A916C" stroke-width=".9" gorn=".109"/><circle id="connector73pin" cx="133.9" cy="17.2" r="1.7" fill="none" stroke="#9A916C" stroke-width=".9" gorn=".11"/><circle id="connector74pin" cx="133.9" cy="10" r="1.7" fill="none" stroke="#9A916C" stroke-width=".9" gorn=".111"/><circle id="connector75pin" cx="141.1" cy="17.2" r="1.7" fill="none" stroke="#9A916C" stroke-width=".9" gorn=".112"/><circle id="connector76pin" cx="141.1" cy="10" r="1.7" fill="none" stroke="#9A916C" stroke-width=".9" gorn=".113"/><rect id="connector77pin" width="3.4" height="2.6" x="18" y="55.5" fill="#9A916C" gorn=".114"/><rect id="connector78pin" width="3.4" height="2.6" x="29.4" y="55.5" fill="#9A916C" gorn=".115"/><rect id="connector79pin" width="3.4" height="2.6" x="18" y="59.7" fill="#9A916C" gorn=".116"/><rect id="connector80pin" width="3.4" height="2.6" x="29.4" y="59.7" fill="#9A916C" gorn=".117"/><g><g><g><g><g transform="matrix(0, -1, 1, 0, -11.1543, 31.7508) matrix(-2.535182e-06 -1 1 -2.535182e-06 -11.1545 31.7508)"><rect id="connector81pin" width="2.3" height="2.3" x="9.2" y="20.3" fill="#9A916C" gorn="0.118.0.0.0.0.0"/></g></g></g></g></g><g><g><g><g><g transform="matrix(0, -1, 1, 0, -6.90236, 36.0028) matrix(-2.535182e-06 -1 1 -2.535182e-06 -6.9025 36.0028)"><rect id="connector82pin" width="2.3" height="2.3" x="13.4" y="20.3" fill="#9A916C" gorn="0.119.0.0.0.0.0"/></g></g></g></g></g><rect id="connector339pin" width="2.3" height="2.3" x="27.9" y="67.9" fill="#9A916C" gorn=".12"/><rect id="connector340pin" width="2.3" height="2.3" x="27.9" y="72.1" fill="#9A916C" gorn=".121"/><rect id="connector341pin" width="2.3" height="2.3" x="21.4" y="67.9" fill="#9A916C" gorn=".122"/><rect id="connector342pin" width="2.3" height="2.3" x="21.4" y="72.1" fill="#9A916C" gorn=".123"/><rect id="connector343pin" width="2.3" height="2.3" x="14.9" y="67.9" fill="#9A916C" gorn=".124"/><rect id="connector344pin" width="2.3" height="2.3" x="14.9" y="72.1" fill="#9A916C" gorn=".125"/><rect id="connector345pin" width="2.3" height="2.3" x="8.4" y="67.9" fill="#9A916C" gorn=".126"/><rect id="connector346pin" width="2.3" height="2.3" x="8.4" y="72.1" fill="#9A916C" gorn=".127"/><g><g><g><g><g transform="matrix(0, 1, -1, 0, 44.9292, 32.7401) matrix(2.535182e-06 1 -1 2.535182e-06 44.9293 32.74)"><rect id="connector347pin" width="5.4" height="5.1" x="3.4" y="36.3" fill="#9A916C" gorn="0.128.0.0.0.0.0"/></g></g></g></g></g><g><g><g><g><g transform="matrix(0, 1, -1, 0, 52.2992, 40.1103) matrix(2.535182e-06 1 -1 2.535182e-06 52.2993 40.11)"><rect id="connector348pin" width="5.4" height="5.4" x="3.4" y="43.5" fill="#9A916C" gorn="0.129.0.0.0.0.0"/></g></g></g></g></g><g><g><g><g><g transform="matrix(0, 1, -1, 0, 59.1024, 46.9134) matrix(2.535182e-06 1 -1 2.535182e-06 59.1025 46.9131)"><rect id="connector349pin" width="5.4" height="5.4" x="3.4" y="50.3" fill="#9A916C" gorn="0.130.0.0.0.0.0"/></g></g></g></g></g><g><g><g><g><g transform="matrix(0, 1, -1, 0, 66.4724, 54.2835) matrix(2.535182e-06 1 -1 2.535182e-06 66.4725 54.2831)"><rect id="connector350pin" width="5.4" height="5.1" x="3.4" y="57.8" fill="#9A916C" gorn="0.131.0.0.0.0.0"/></g></g></g></g></g><g><g><g><g><g transform="matrix(0, 1, -1, 0, 71.7165, 45.0708) matrix(2.535182e-06 1 -1 2.535182e-06 71.7167 45.0705)"><rect id="connector351pin" width="4.5" height="6" x="11.1" y="55.4" fill="#9A916C" gorn="0.132.0.0.0.0.0"/></g></g></g></g></g><g><g><g><g><g transform="matrix(0, 1, -1, 0, 54.1418, 27.4961) matrix(2.535182e-06 1 -1 2.535182e-06 54.1419 27.4958)"><rect id="connector352pin" width="4.5" height="6" x="11.1" y="37.8" fill="#9A916C" gorn="0.133.0.0.0.0.0"/></g></g></g></g></g><g><g><g><g><g transform="matrix(0, 1, -1, 0, 63.2835, 35.9292) matrix(2.535182e-06 1 -1 2.535182e-06 63.2836 35.9288)"><rect id="connector353pin" width="3.8" height="1.1" x="11.8" y="49" fill="#9A916C" gorn="0.134.0.0.0.0.0"/></g></g></g></g></g><g><g><g><g><g transform="matrix(0, 1, -1, 0, 61.4409, 34.0866) matrix(2.535182e-06 1 -1 2.535182e-06 61.4411 34.0863)"><rect id="connector354pin" width="3.8" height="1.1" x="11.8" y="47.2" fill="#9A916C" gorn="0.135.0.0.0.0.0"/></g></g></g></g></g><g><g><g><g><g transform="matrix(0, 1, -1, 0, 66.9685, 39.6142) matrix(2.535182e-06 1 -1 2.535182e-06 66.9687 39.6139)"><rect id="connector355pin" width="3.8" height="1.1" x="11.8" y="52.7" fill="#9A916C" gorn="0.136.0.0.0.0.0"/></g></g></g></g></g><g><g><g><g><g transform="matrix(0, 1, -1, 0, 65.126, 37.7716) matrix(2.535182e-06 1 -1 2.535182e-06 65.1261 37.7713)"><rect id="connector356pin" width="3.8" height="1.1" x="11.8" y="50.9" fill="#9A916C" gorn="0.137.0.0.0.0.0"/></g></g></g></g></g><g><g><g><g><g transform="matrix(0, 1, -1, 0, 59.5984, 32.2441) matrix(2.535182e-06 1 -1 2.535182e-06 59.5985 32.2437)"><rect id="connector357pin" width="3.8" height="1.1" x="11.8" y="45.4" fill="#9A916C" gorn="0.138.0.0.0.0.0"/></g></g></g></g></g><rect id="connector358pin" width="4.5" height="2" x="105.9" y="42.6" fill="#9A916C" gorn=".139"/><rect id="connector359pin" width="4.5" height="2" x="105.9" y="45.7" fill="#9A916C" gorn=".14"/><rect id="connector360pin" width="4.5" height="2" x="105.9" y="48.9" fill="#9A916C" gorn=".141"/><rect id="connector361pin" width="4.5" height="2" x="105.9" y="52" fill="#9A916C" gorn=".142"/><rect id="connector362pin" width="4.5" height="2" x="105.9" y="55.1" fill="#9A916C" gorn=".143"/><rect id="connector363pin" width="4.5" height="2" x="105.9" y="58.2" fill="#9A916C" gorn=".144"/><rect id="connector364pin" width="4.5" height="2" x="105.9" y="61.3" fill="#9A916C" gorn=".145"/><rect id="connector365pin" width="4.5" height="2" x="105.9" y="64.4" fill="#9A916C" gorn=".146"/><rect id="connector366pin" width="4.5" height="2" x="105.9" y="67.6" fill="#9A916C" gorn=".147"/><rect id="connector367pin" width="4.5" height="3.4" x="107.6" y="70.1" fill="#9A916C" gorn=".148"/><rect id="connector368pin" width="6.2" height="3.4" x="133.7" y="70.1" fill="#9A916C" gorn=".149"/><rect id="connector369pin" width="6.2" height="3.4" x="133.7" y="26.2" fill="#9A916C" gorn=".15"/><rect id="connector370pin" width="4" height="4.5" x="107.6" y="28.2" fill="#9A916C" gorn=".151"/><g><g transform="matrix(1, 0, 0, 1, 19.0063, 54.6406)"><g id="btn_kmr2_4.6x2.8" gorn="0.152.0.0"><g><polygon fill="#DCDCDC" points="12.8 2.7 12.8 1.3 11.3 1.3 11.3 0 1.4 0 1.4 1.3 0 1.3 0 2.7 1.4 2.7 1.4 5.8 0 5.8 0 7.2 1.4 7.2 1.4 8.5 11.3 8.5 11.3 7.2 12.8 7.2 12.8 5.8 11.3 5.8 11.3 2.7"/><circle cx="6.4" cy="4.3" r="2.5" fill="#1E1E1E"/><rect width=".6" height="8.5" x="1" y="0" fill="#B4B4B4"/><rect width=".6" height="8.5" x="11.2" y="0" fill="#B4B4B4"/></g></g></g></g><g><g transform="matrix(1, 0, 0, 1, 11.2902, 19.1851)"><g id="_x30_603-led" gorn="0.153.0.0"><g><g><g transform="matrix(0, -1, 1, 0, -1.1335, 3.4015)"><path fill="#DCDCDC" d="M2.3,0.3v4c0,0.2-0.1,0.3-0.3,0.3H0.3C0.1,4.5,0,4.4,0,4.2v-4C0,0.1,0.1,0,0.3,0H2C2.1,0,2.3,0.1,2.3,0.3z"/><g><g transform="matrix(-2.535182e-06 -1 1 -2.535182e-06 -1.1336 3.4016)"><rect width="2.3" height="2.3" x="0" y="1.1" fill="#0080FF"/></g></g><circle cx="1.1" cy="2.3" r=".4" fill="#0050A0"/></g></g></g></g></g></g><g><g transform="matrix(1, 0, 0, 1, 27.8502, 68.8651)"><g id="_x30_603-led_1_" gorn="0.154.0.0"><path fill="#DCDCDC" d="M2.3,0.3v4c0,0.2-0.1,0.3-0.3,0.3H0.3C0.1,4.5,0,4.4,0,4.2v-4C0,0.1,0.1,0,0.3,0H2C2.1,0,2.3,0.1,2.3,0.3z"/><rect width="2.3" height="2.3" x="0" y="1.1" fill="#0080FF"/><circle cx="1.1" cy="2.3" r=".4" fill="#0050A0"/></g></g></g><g><g transform="matrix(1, 0, 0, 1, 21.3702, 68.8651)"><g id="_x30_603-led_2_" gorn="0.155.0.0"><path fill="#DCDCDC" d="M2.3,0.3v4c0,0.2-0.1,0.3-0.3,0.3H0.3C0.1,4.5,0,4.4,0,4.2v-4C0,0.1,0.1,0,0.3,0H2C2.1,0,2.3,0.1,2.3,0.3z"/><rect width="2.3" height="2.3" x="0" y="1.1" fill="#0080FF"/><circle cx="1.1" cy="2.3" r=".4" fill="#0050A0"/></g></g></g><g><g transform="matrix(1, 0, 0, 1, 14.8902, 68.8651)"><g id="_x30_603-led_3_" gorn="0.156.0.0"><path fill="#DCDCDC" d="M2.3,0.3v4c0,0.2-0.1,0.3-0.3,0.3H0.3C0.1,4.5,0,4.4,0,4.2v-4C0,0.1,0.1,0,0.3,0H2C2.1,0,2.3,0.1,2.3,0.3z"/><rect width="2.3" height="2.3" x="0" y="1.1" fill="#0080FF"/><circle cx="1.1" cy="2.3" r=".4" fill="#0050A0"/></g></g></g><g><g transform="matrix(1, 0, 0, 1, 8.41025, 68.8651)"><g id="_x30_603-led_4_" gorn="0.157.0.0"><path fill="#DCDCDC" d="M2.3,0.3v4c0,0.2-0.1,0.3-0.3,0.3H0.3C0.1,4.5,0,4.4,0,4.2v-4C0,0.1,0.1,0,0.3,0H2C2.1,0,2.3,0.1,2.3,0.3z"/><rect width="2.3" height="2.3" x="0" y="1.1" fill="#0080FF"/><circle cx="1.1" cy="2.3" r=".4" fill="#0050A0"/></g></g></g><g><g transform="matrix(1, 0, 0, 1, 1.27231, 40.4063)"><g id="usb-microb" gorn="0.158.0.0"><g><g><g><g><g transform="matrix(0, 1, -1, 0, 16.16, 2.24003) matrix(1, 0, 0, 1, -260.469, -498.975)"><g id="layer1" gorn="0.158.0.0.0.0.0.0.0.0"><g><g transform="matrix(1, 0, 0, 1, 266.949, 488.256)"><g id="g802" gorn="0.158.0.0.0.0.0.0.0.0.0.0.0"><g id="g804" gorn="0.158.0.0.0.0.0.0.0.0.0.0.0.0"><g id="g806" gorn="0.158.0.0.0.0.0.0.0.0.0.0.0.0.0"><g><g transform="matrix(2.535182e-06 1 -1 2.535182e-06 10.7602 15.7198)"><rect id="rect808" width=".6" height=".8" x="-2.8" y="12.8" fill="#666" gorn="0.158.0.0.0.0.0.0.0.0.0.0.0.0.0.0.0.0"/></g></g><g><g transform="matrix(2.535182e-06 1 -1 2.535182e-06 10.3202 15.9998)"><rect id="rect810" width=".4" height=".1" x="-3" y="13.1" fill="#999" gorn="0.158.0.0.0.0.0.0.0.0.0.0.0.0.0.1.0.0"/></g></g></g><g id="g812" gorn="0.158.0.0.0.0.0.0.0.0.0.0.0.0.1"><g><g transform="matrix(2.535182e-06 1 -1 2.535182e-06 12.2802 14.1998)"><rect id="rect814" width=".6" height=".8" x="-1.2" y="12.8" fill="#666" gorn="0.158.0.0.0.0.0.0.0.0.0.0.0.0.1.0.0.0"/></g></g><g><g transform="matrix(2.535182e-06 1 -1 2.535182e-06 11.8402 14.4798)"><rect id="rect816" width=".4" height=".1" x="-1.5" y="13.1" fill="#999" gorn="0.158.0.0.0.0.0.0.0.0.0.0.0.0.1.1.0.0"/></g></g></g><g id="g818" gorn="0.158.0.0.0.0.0.0.0.0.0.0.0.0.2"><g><g transform="matrix(2.535182e-06 1 -1 2.535182e-06 13.7201 12.7598)"><rect id="rect820" width=".6" height=".8" x=".2" y="12.8" fill="#666" gorn="0.158.0.0.0.0.0.0.0.0.0.0.0.0.2.0.0.0"/></g></g><g><g transform="matrix(2.535182e-06 1 -1 2.535182e-06 13.2801 13.0398)"><rect id="rect822" width=".4" height=".1" x="-.1" y="13.1" fill="#999" gorn="0.158.0.0.0.0.0.0.0.0.0.0.0.0.2.1.0.0"/></g></g></g><g id="g824" gorn="0.158.0.0.0.0.0.0.0.0.0.0.0.0.3"><g><g transform="matrix(2.535182e-06 1 -1 2.535182e-06 15.2401 11.2398)"><rect id="rect826" width=".6" height=".8" x="1.7" y="12.8" fill="#666" gorn="0.158.0.0.0.0.0.0.0.0.0.0.0.0.3.0.0.0"/></g></g><g><g transform="matrix(2.535182e-06 1 -1 2.535182e-06 14.8001 11.5198)"><rect id="rect828" width=".4" height=".1" x="1.4" y="13.1" fill="#999" gorn="0.158.0.0.0.0.0.0.0.0.0.0.0.0.3.1.0.0"/></g></g></g><g id="g830" gorn="0.158.0.0.0.0.0.0.0.0.0.0.0.0.4"><g><g transform="matrix(2.535182e-06 1 -1 2.535182e-06 16.6801 9.7998)"><rect id="rect832" width=".6" height=".8" x="3.2" y="12.8" fill="#666" gorn="0.158.0.0.0.0.0.0.0.0.0.0.0.0.4.0.0.0"/></g></g><g><g transform="matrix(2.535182e-06 1 -1 2.535182e-06 16.2401 10.0798)"><rect id="rect834" width=".4" height=".1" x="2.9" y="13.1" fill="#999" gorn="0.158.0.0.0.0.0.0.0.0.0.0.0.0.4.1.0.0"/></g></g></g><g id="g836" gorn="0.158.0.0.0.0.0.0.0.0.0.0.0.0.5"><polygon id="polygon838" fill="#B3B3B3" points="-7 26.9 -7 13.3 8.1 13.3 8.1 26.9" gorn="0.158.0.0.0.0.0.0.0.0.0.0.0.0.5.0"/><g><g transform="matrix(2.535182e-06 1 -1 2.535182e-06 28.8001 10.8798)"><rect id="rect840" width="2.4" height="1.4" x="7.8" y="19.1" fill="#B7B7B7" gorn="0.158.0.0.0.0.0.0.0.0.0.0.0.0.5.1.0.0"/></g></g><g><g transform="matrix(2.535182e-06 1 -1 2.535182e-06 11.8402 27.8398)"><rect id="rect842" width="2.4" height="1.4" x="-9.2" y="19.1" fill="#B7B7B7" gorn="0.158.0.0.0.0.0.0.0.0.0.0.0.0.5.2.0.0"/></g></g><g><g transform="matrix(2.535182e-06 1 -1 2.535182e-06 13.8001 12.8398)"><rect id="rect844" width=".1" height="15" x=".4" y="5.8" fill="#CCC" gorn="0.158.0.0.0.0.0.0.0.0.0.0.0.0.5.3.0.0"/></g></g><g><g transform="matrix(2.535182e-06 1 -1 2.535182e-06 20.6001 19.5598)"><rect id="rect846" width="13.6" height="8.2" x="-6.3" y="16" fill="#333" gorn="0.158.0.0.0.0.0.0.0.0.0.0.0.0.5.4.0.0"/></g></g><g><g transform="matrix(2.535182e-06 1 -1 2.535182e-06 18.8402 34.0398)"><rect id="rect848" width=".9" height=".8" x="-8" y="26" fill="#B3B3B3" gorn="0.158.0.0.0.0.0.0.0.0.0.0.0.0.5.5.0.0"/></g></g><g><g transform="matrix(2.535182e-06 1 -1 2.535182e-06 18.9202 33.9598)"><rect id="rect850" width=".9" height=".5" x="-8" y="26.2" fill="#F2F2F2" gorn="0.158.0.0.0.0.0.0.0.0.0.0.0.0.5.6.0.0"/></g></g><g><g transform="matrix(2.535182e-06 1 -1 2.535182e-06 35.0801 17.7998)"><rect id="rect852" width=".9" height=".8" x="8.2" y="26" fill="#B3B3B3" gorn="0.158.0.0.0.0.0.0.0.0.0.0.0.0.5.7.0.0"/></g></g><g><g transform="matrix(2.535182e-06 1 -1 2.535182e-06 34.9201 17.9598)"><rect id="rect854" width=".9" height=".5" x="8" y="26.2" fill="#999" gorn="0.158.0.0.0.0.0.0.0.0.0.0.0.0.5.8.0.0"/></g></g><path id="path856" fill="#CCC" d="M-7.2,13.8l0.2-0.5l2,6.6c0,0-1.8,0.1-1.9,0.2s0.1,0.2,0.1,0.2h-0.3V13.8z" gorn="0.158.0.0.0.0.0.0.0.0.0.0.0.0.5.9"/><path id="path858" fill="#CCC" d="M8.2,13.8l-0.2-0.5h-2c0,0,1.8,0.1,1.9,0.2c0.1,0.2-0.1,0.2-0.1,0.2S8.2,13.8,8.2,13.8z" gorn="0.158.0.0.0.0.0.0.0.0.0.0.0.0.5.10"/><path id="path860" fill="#E6E6E6" d="M5.5,13.8v0.8l-1.3,0v-1.3H3.8v0.5h-6.7v-0.5h-0.4v1.3h-1.3v-0.9h-2.6v13.2H8.2V13.8H5.5z M-3.3,24.4V25h-1.3v-0.7c-0.3-0.2-0.6-0.6-0.6-1c0-0.5,0.2-0.9,0.6-1.1l0,0v-3.6h1.3l0.6,3.6c-0.2,0.2,0.1,0.6,0.1,1.1S-2.9,24.2-3.3,24.4z M5.4,24.4V25H4.2v-0.7c-0.3-0.2-0.6-0.6-0.6-1c0-0.5,0.2-0.9,0.6-1.1l0,0v-3.6h1.3v3.6c0.4,0.2,0.6,0.6,0.6,1.1S5.8,24.2,5.4,24.4z" gorn="0.158.0.0.0.0.0.0.0.0.0.0.0.0.5.11"/><polygon id="polygon862" fill="#F2F2F2" points="-7.2 26.9 -7.2 13.8 -6 13.8 -6.9 26.9" gorn="0.158.0.0.0.0.0.0.0.0.0.0.0.0.5.12"/><polygon id="polygon864" fill="#999" points="7.8 18.1 7.3 13.8 8.2 13.8 8.2 26.9" gorn="0.158.0.0.0.0.0.0.0.0.0.0.0.0.5.13"/><g><g transform="matrix(2.535182e-06 1 -1 2.535182e-06 14.7602 22.5998)"><rect id="rect866" width=".1" height="1.3" x="-4" y="18" fill="#CCC" gorn="0.158.0.0.0.0.0.0.0.0.0.0.0.0.5.14.0.0"/></g></g><g><g transform="matrix(2.535182e-06 1 -1 2.535182e-06 23.4801 13.8798)"><rect id="rect868" width=".1" height="1.3" x="4.8" y="18" fill="#CCC" gorn="0.158.0.0.0.0.0.0.0.0.0.0.0.0.5.15.0.0"/></g></g><g><g transform="matrix(2.535182e-06 1 -1 2.535182e-06 26.6001 25.6398)"><rect id="rect870" width=".6" height="13.9" x=".2" y="19.2" fill="#B3B3B3" gorn="0.158.0.0.0.0.0.0.0.0.0.0.0.0.5.16.0.0"/></g></g><g><g transform="matrix(2.535182e-06 1 -1 2.535182e-06 27.0801 26.1198)"><rect id="rect872" width=".6" height="13.9" x=".2" y="19.6" fill="#CCC" gorn="0.158.0.0.0.0.0.0.0.0.0.0.0.0.5.17.0.0"/></g></g></g></g></g></g></g></g></g></g></g></g></g></g></g></g><g><title>element:X2</title><g><title>package:microsd-simple</title><path fill="#DCDCDC" d="M108.2,32.3v38.5h39.6V51.2c0-4.4,0.8-8.7,2.4-12.8c0.3-0.9,0.5-1.9,0.5-2.8v-7.2h-39.2v4H108.2z"/></g></g><polygon id="polygon42" fill="#747678" points="135.1 29.6 134.9 29.5 134.6 29.5 130.2 29.5 129.9 29.5 129.6 29.7 129.3 30 129.3 30.4 129.3 34.9 129.3 35.2 129.6 35.6 129.9 35.8 130.2 35.8 134.6 35.8 134.9 35.8 135.1 35.7 135.4 35.3 135.6 35.2 135.8 35.2 135.6 35.2 149 35.2 149.3 35.1 149.5 34.9 149.5 34.6 149.5 34.5 149.5 34.3 149.4 34 149.2 33.9 149 33.8 136 33.4 135.9 33.5 135.7 33.5 135.6 33.6 134.4 34.8 134.3 34.9 134 34.9 131.3 34.9 130.9 34.9 130.7 34.9 130.6 34.7 130.4 34.5 130.4 34.4 130.4 30.9 130.4 30.8 130.6 30.6 130.7 30.4 130.9 30.4 134 30.4 134.2 30.4 134.4 30.6 135.6 31.8 135.8 31.9 135.9 31.9 136 32 149 31.5 149.2 31.3 149.4 31.2 149.5 31 149.5 30.8 149.5 30.7 149.5 30.4 149.3 30.2 149 30 135.8 30 135.6 30 135.4 29.9" gorn=".16"/><polygon id="polygon58" fill="#C4C5C7" stroke="#000" stroke-width=".003" points="130.5 30.6 130.8 30.4 130.9 30.4 131.1 30.4 130.9 30.4 131.1 30.4 131 30.5 130.9 30.6 130.8 30.8 130.8 30.9 130.8 34.4 130.8 34.5 130.9 34.7 131.1 34.9 130.9 34.9 130.8 34.9 130.5 34.7 130.3 34.5 130.3 34.4 130.3 30.9 130.3 30.8" gorn=".161"/></svg>