<svg xmlns="http://www.w3.org/2000/svg" xmlns:xlink="http://www.w3.org/1999/xlink" id="Ebene_1" width="122.4" height="295.2" x="0" y="0" enable-background="new 0 0 122.4 295.2" version="1.1" viewBox="0 0 122.4 295.2" xml:space="preserve"><g id="schematic"><rect width="93.149" height="266.399" x="14.4" y="14.4" fill="none" stroke="#000" stroke-linecap="round" stroke-linejoin="round" stroke-width=".9"/><text id="label" font-family="'DroidSans'" font-size="3.5" transform="matrix(1 0 0 1 50.7253 140.5)">PocketBeagle</text><line x1=".35" x2="14.4" y1="36" y2="36" fill="none" stroke="#787878" stroke-linecap="round" stroke-linejoin="round" stroke-width=".7"/><rect id="connector52pin" width="14.4" height=".7" x="0" y="35.65" fill="none"/><rect id="connector52terminal" width="0" height=".7" x="0" y="35.65" fill="none"/><text id="label52" fill="#8C8C8C" font-family="'DroidSans'" font-size="3.5" transform="matrix(1 0 0 1 15.7996 36.7002)">POWER.BUTTON</text><line x1=".35" x2="14.4" y1="43.2" y2="43.2" fill="none" stroke="#787878" stroke-linecap="round" stroke-linejoin="round" stroke-width=".7"/><rect id="connector21pin" width="14.4" height=".7" x="0" y="42.85" fill="none"/><rect id="connector21terminal" width="0" height=".7" x="0" y="42.85" fill="none"/><text id="label21" fill="#8C8C8C" font-family="'DroidSans'" font-size="3.5" transform="matrix(1 0 0 1 15.7996 43.9004)">AIN.VREFN</text><line x1=".35" x2="14.4" y1="50.4" y2="50.4" fill="none" stroke="#787878" stroke-linecap="round" stroke-linejoin="round" stroke-width=".7"/><rect id="connector22pin" width="14.4" height=".7" x="0" y="50.05" fill="none"/><rect id="connector22terminal" width="0" height=".7" x="0" y="50.05" fill="none"/><text id="label22" fill="#8C8C8C" font-family="'DroidSans'" font-size="3.5" transform="matrix(1 0 0 1 15.7996 51.0996)">AIN.VREFP</text><line x1=".35" x2="14.4" y1="57.6" y2="57.6" fill="none" stroke="#787878" stroke-linecap="round" stroke-linejoin="round" stroke-width=".7"/><rect id="connector23pin" width="14.4" height=".7" x="0" y="57.25" fill="none"/><rect id="connector23terminal" width="0" height=".7" x="0" y="57.25" fill="none"/><text id="label23" fill="#8C8C8C" font-family="'DroidSans'" font-size="3.5" transform="matrix(1 0 0 1 15.7996 58.2998)">AIN0(1.8V)</text><line x1=".35" x2="14.4" y1="64.8" y2="64.8" fill="none" stroke="#787878" stroke-linecap="round" stroke-linejoin="round" stroke-width=".7"/><rect id="connector25pin" width="14.4" height=".7" x="0" y="64.45" fill="none"/><rect id="connector25terminal" width="0" height=".7" x="0" y="64.45" fill="none"/><text id="label25" fill="#8C8C8C" font-family="'DroidSans'" font-size="3.5" transform="matrix(1 0 0 1 15.7996 65.5)">AIN1(1.8V)</text><line x1=".35" x2="14.4" y1="72" y2="72" fill="none" stroke="#787878" stroke-linecap="round" stroke-linejoin="round" stroke-width=".7"/><rect id="connector27pin" width="14.4" height=".7" x="0" y="71.65" fill="none"/><rect id="connector27terminal" width="0" height=".7" x="0" y="71.65" fill="none"/><text id="label27" fill="#8C8C8C" font-family="'DroidSans'" font-size="3.5" transform="matrix(1 0 0 1 15.7996 72.7002)">AIN2(1.8V)</text><line x1=".35" x2="14.4" y1="79.2" y2="79.2" fill="none" stroke="#787878" stroke-linecap="round" stroke-linejoin="round" stroke-width=".7"/><rect id="connector29pin" width="14.4" height=".7" x="0" y="78.85" fill="none"/><rect id="connector29terminal" width="0" height=".7" x="0" y="78.85" fill="none"/><text id="label29" fill="#8C8C8C" font-family="'DroidSans'" font-size="3.5" transform="matrix(1 0 0 1 15.7996 79.8994)">AIN3(1.8V)</text><line x1=".35" x2="14.4" y1="86.4" y2="86.4" fill="none" stroke="#787878" stroke-linecap="round" stroke-linejoin="round" stroke-width=".7"/><rect id="connector31pin" width="14.4" height=".7" x="0" y="86.05" fill="none"/><rect id="connector31terminal" width="0" height=".7" x="0" y="86.05" fill="none"/><text id="label31" fill="#8C8C8C" font-family="'DroidSans'" font-size="3.5" transform="matrix(1 0 0 1 15.7996 87.0996)">AIN4(1.8V)</text><line x1=".35" x2="14.4" y1="93.6" y2="93.6" fill="none" stroke="#787878" stroke-linecap="round" stroke-linejoin="round" stroke-width=".7"/><rect id="connector75pin" width="14.4" height=".7" x="0" y="93.25" fill="none"/><rect id="connector75terminal" width="0" height=".7" x="0" y="93.25" fill="none"/><text id="label75" fill="#8C8C8C" font-family="'DroidSans'" font-size="3.5" transform="matrix(1 0 0 1 15.7996 94.2998)">AIN5/GPIO86</text><line x1=".35" x2="14.4" y1="100.8" y2="100.8" fill="none" stroke="#787878" stroke-linecap="round" stroke-linejoin="round" stroke-width=".7"/><rect id="connector6pin" width="14.4" height=".7" x="0" y="100.45" fill="none"/><rect id="connector6terminal" width="0" height=".7" x="0" y="100.45" fill="none"/><text id="label6" fill="#8C8C8C" font-family="'DroidSans'" font-size="3.5" transform="matrix(1 0 0 1 15.7996 101.5)">AIN6/GPIO87</text><line x1=".35" x2="14.4" y1="108" y2="108" fill="none" stroke="#787878" stroke-linecap="round" stroke-linejoin="round" stroke-width=".7"/><rect id="connector76pin" width="14.4" height=".7" x="0" y="107.65" fill="none"/><rect id="connector76terminal" width="0" height=".7" x="0" y="107.65" fill="none"/><text id="label76" fill="#8C8C8C" font-family="'DroidSans'" font-size="3.5" transform="matrix(1 0 0 1 15.7996 108.7002)">AIN7(1.8V)</text><line x1=".35" x2="14.4" y1="115.2" y2="115.2" fill="none" stroke="#787878" stroke-linecap="round" stroke-linejoin="round" stroke-width=".7"/><rect id="connector56pin" width="14.4" height=".7" x="0" y="114.85" fill="none"/><rect id="connector56terminal" width="0" height=".7" x="0" y="114.85" fill="none"/><text id="label56" fill="#8C8C8C" font-family="'DroidSans'" font-size="3.5" transform="matrix(1 0 0 1 15.7996 115.9004)">BAT.TEMP</text><line x1=".35" x2="14.4" y1="122.4" y2="122.4" fill="none" stroke="#787878" stroke-linecap="round" stroke-linejoin="round" stroke-width=".7"/><rect id="connector24pin" width="14.4" height=".7" x="0" y="122.05" fill="none"/><rect id="connector24terminal" width="0" height=".7" x="0" y="122.05" fill="none"/><text id="label24" fill="#8C8C8C" font-family="'DroidSans'" font-size="3.5" transform="matrix(1 0 0 1 15.7996 123.0996)">GPIO20</text><line x1=".35" x2="14.4" y1="129.6" y2="129.6" fill="none" stroke="#787878" stroke-linecap="round" stroke-linejoin="round" stroke-width=".7"/><rect id="connector43pin" width="14.4" height=".7" x="0" y="129.25" fill="none"/><rect id="connector43terminal" width="0" height=".7" x="0" y="129.25" fill="none"/><text id="label43" fill="#8C8C8C" font-family="'DroidSans'" font-size="3.5" transform="matrix(1 0 0 1 15.7996 130.2998)">GPIO23</text><line x1=".35" x2="14.4" y1="136.8" y2="136.8" fill="none" stroke="#787878" stroke-linecap="round" stroke-linejoin="round" stroke-width=".7"/><rect id="connector38pin" width="14.4" height=".7" x="0" y="136.45" fill="none"/><rect id="connector38terminal" width="0" height=".7" x="0" y="136.45" fill="none"/><text id="label38" fill="#8C8C8C" font-family="'DroidSans'" font-size="3.5" transform="matrix(1 0 0 1 15.7996 137.5)">GPIO26</text><line x1=".35" x2="14.4" y1="144" y2="144" fill="none" stroke="#787878" stroke-linecap="round" stroke-linejoin="round" stroke-width=".7"/><rect id="connector59pin" width="14.4" height=".7" x="0" y="143.65" fill="none"/><rect id="connector59terminal" width="0" height=".7" x="0" y="143.65" fill="none"/><text id="label59" fill="#8C8C8C" font-family="'DroidSans'" font-size="3.5" transform="matrix(1 0 0 1 15.7996 144.7002)">GPIO27</text><line x1=".35" x2="14.4" y1="151.2" y2="151.2" fill="none" stroke="#787878" stroke-linecap="round" stroke-linejoin="round" stroke-width=".7"/><rect id="connector73pin" width="14.4" height=".699" x="0" y="150.85" fill="none"/><rect id="connector73terminal" width="0" height=".699" x="0" y="150.85" fill="none"/><text id="label73" fill="#8C8C8C" font-family="'DroidSans'" font-size="3.5" transform="matrix(1 0 0 1 15.7996 151.9009)">GPIO45</text><line x1=".35" x2="14.4" y1="158.4" y2="158.4" fill="none" stroke="#787878" stroke-linecap="round" stroke-linejoin="round" stroke-width=".7"/><rect id="connector62pin" width="14.4" height=".701" x="0" y="158.049" fill="none"/><rect id="connector62terminal" width="0" height=".701" x="0" y="158.049" fill="none"/><text id="label62" fill="#8C8C8C" font-family="'DroidSans'" font-size="3.5" transform="matrix(1 0 0 1 15.7996 159.1001)">GPIO46</text><line x1=".35" x2="14.4" y1="165.6" y2="165.6" fill="none" stroke="#787878" stroke-linecap="round" stroke-linejoin="round" stroke-width=".7"/><rect id="connector58pin" width="14.4" height=".699" x="0" y="165.25" fill="none"/><rect id="connector58terminal" width="0" height=".699" x="0" y="165.25" fill="none"/><text id="label58" fill="#8C8C8C" font-family="'DroidSans'" font-size="3.5" transform="matrix(1 0 0 1 15.7996 166.2993)">GPIO47</text><line x1=".35" x2="14.4" y1="172.799" y2="172.799" fill="none" stroke="#787878" stroke-linecap="round" stroke-linejoin="round" stroke-width=".7"/><rect id="connector64pin" width="14.4" height=".7" x="0" y="172.45" fill="none"/><rect id="connector64terminal" width="0" height=".7" x="0" y="172.45" fill="none"/><text id="label64" fill="#8C8C8C" font-family="'DroidSans'" font-size="3.5" transform="matrix(1 0 0 1 15.7996 173.5005)">GPIO48</text><line x1=".35" x2="14.4" y1="180" y2="180" fill="none" stroke="#787878" stroke-linecap="round" stroke-linejoin="round" stroke-width=".7"/><rect id="connector50pin" width="14.4" height=".7" x="0" y="179.65" fill="none"/><rect id="connector50terminal" width="0" height=".7" x="0" y="179.65" fill="none"/><text id="label50" fill="#8C8C8C" font-family="'DroidSans'" font-size="3.5" transform="matrix(1 0 0 1 15.7996 180.6997)">GPIO52</text><line x1=".35" x2="14.4" y1="187.2" y2="187.2" fill="none" stroke="#787878" stroke-linecap="round" stroke-linejoin="round" stroke-width=".7"/><rect id="connector46pin" width="14.4" height=".699" x="0" y="186.85" fill="none"/><rect id="connector46terminal" width="0" height=".699" x="0" y="186.85" fill="none"/><text id="label46" fill="#8C8C8C" font-family="'DroidSans'" font-size="3.5" transform="matrix(1 0 0 1 15.7996 187.9009)">GPIO57</text><line x1=".35" x2="14.4" y1="194.4" y2="194.4" fill="none" stroke="#787878" stroke-linecap="round" stroke-linejoin="round" stroke-width=".7"/><rect id="connector44pin" width="14.4" height=".701" x="0" y="194.049" fill="none"/><rect id="connector44terminal" width="0" height=".701" x="0" y="194.049" fill="none"/><text id="label44" fill="#8C8C8C" font-family="'DroidSans'" font-size="3.5" transform="matrix(1 0 0 1 15.7996 195.1001)">GPIO58</text><line x1=".35" x2="14.4" y1="201.6" y2="201.6" fill="none" stroke="#787878" stroke-linecap="round" stroke-linejoin="round" stroke-width=".7"/><rect id="connector42pin" width="14.4" height=".699" x="0" y="201.25" fill="none"/><rect id="connector42terminal" width="0" height=".699" x="0" y="201.25" fill="none"/><text id="label42" fill="#8C8C8C" font-family="'DroidSans'" font-size="3.5" transform="matrix(1 0 0 1 15.7996 202.2993)">GPIO59</text><line x1=".35" x2="14.4" y1="208.799" y2="208.799" fill="none" stroke="#787878" stroke-linecap="round" stroke-linejoin="round" stroke-width=".7"/><rect id="connector48pin" width="14.4" height=".7" x="0" y="208.45" fill="none"/><rect id="connector48terminal" width="0" height=".7" x="0" y="208.45" fill="none"/><text id="label48" fill="#8C8C8C" font-family="'DroidSans'" font-size="3.5" transform="matrix(1 0 0 1 15.7996 209.5005)">GPIO60</text><line x1=".35" x2="14.4" y1="216" y2="216" fill="none" stroke="#787878" stroke-linecap="round" stroke-linejoin="round" stroke-width=".7"/><rect id="connector60pin" width="14.4" height=".7" x="0" y="215.65" fill="none"/><rect id="connector60terminal" width="0" height=".7" x="0" y="215.65" fill="none"/><text id="label60" fill="#8C8C8C" font-family="'DroidSans'" font-size="3.5" transform="matrix(1 0 0 1 15.7996 216.6997)">GPIO64</text><line x1=".35" x2="14.4" y1="223.2" y2="223.2" fill="none" stroke="#787878" stroke-linecap="round" stroke-linejoin="round" stroke-width=".7"/><rect id="connector57pin" width="14.4" height=".699" x="0" y="222.85" fill="none"/><rect id="connector57terminal" width="0" height=".699" x="0" y="222.85" fill="none"/><text id="label57" fill="#8C8C8C" font-family="'DroidSans'" font-size="3.5" transform="matrix(1 0 0 1 15.7996 223.9009)">GPIO65</text><line x1=".35" x2="14.4" y1="230.4" y2="230.4" fill="none" stroke="#787878" stroke-linecap="round" stroke-linejoin="round" stroke-width=".7"/><rect id="connector8pin" width="14.4" height=".701" x="0" y="230.049" fill="none"/><rect id="connector8terminal" width="0" height=".701" x="0" y="230.049" fill="none"/><text id="label8" fill="#8C8C8C" font-family="'DroidSans'" font-size="3.5" transform="matrix(1 0 0 1 15.7996 231.1001)">GPIO89</text><line x1="107.65" x2="122.05" y1="36" y2="36" fill="none" stroke="#787878" stroke-linecap="round" stroke-linejoin="round" stroke-width=".7"/><rect id="connector11pin" width="14.4" height=".7" x="108" y="35.65" fill="none"/><rect id="connector11terminal" width="0" height=".7" x="122.4" y="35.65" fill="none"/><text id="label11" fill="#8C8C8C" font-family="'DroidSans'" font-size="3.5" transform="matrix(1 0 0 1 91.7488 36.7002)">USB1.VIN</text><line x1="107.65" x2="122.05" y1="43.2" y2="43.2" fill="none" stroke="#787878" stroke-linecap="round" stroke-linejoin="round" stroke-width=".7"/><rect id="connector9pin" width="14.4" height=".7" x="108" y="42.85" fill="none"/><rect id="connector9terminal" width="0" height=".7" x="122.4" y="42.85" fill="none"/><text id="label9" fill="#8C8C8C" font-family="'DroidSans'" font-size="3.5" transform="matrix(1 0 0 1 89.0515 43.9004)">USB1.VBUS</text><line x1="107.65" x2="122.05" y1="50.4" y2="50.4" fill="none" stroke="#787878" stroke-linecap="round" stroke-linejoin="round" stroke-width=".7"/><rect id="connector17pin" width="14.4" height=".7" x="108" y="50.05" fill="none"/><rect id="connector17terminal" width="0" height=".7" x="122.4" y="50.05" fill="none"/><text id="label17" fill="#8C8C8C" font-family="'DroidSans'" font-size="3.5" transform="matrix(1 0 0 1 93.7195 51.0996)">USB1.ID</text><line x1="107.65" x2="122.05" y1="57.6" y2="57.6" fill="none" stroke="#787878" stroke-linecap="round" stroke-linejoin="round" stroke-width=".7"/><rect id="connector7pin" width="14.4" height=".7" x="108" y="57.25" fill="none"/><rect id="connector7terminal" width="0" height=".7" x="122.4" y="57.25" fill="none"/><text id="label7" fill="#8C8C8C" font-family="'DroidSans'" font-size="3.5" transform="matrix(1 0 0 1 82.4314 58.2998)">USB1.DRVVBUS</text><line x1="107.65" x2="122.05" y1="64.8" y2="64.8" fill="none" stroke="#787878" stroke-linecap="round" stroke-linejoin="round" stroke-width=".7"/><rect id="connector15pin" width="14.4" height=".7" x="108" y="64.45" fill="none"/><rect id="connector15terminal" width="0" height=".7" x="122.4" y="64.45" fill="none"/><text id="label15" fill="#8C8C8C" font-family="'DroidSans'" font-size="3.5" transform="matrix(1 0 0 1 92.8884 65.5)">USB1.DP</text><line x1="107.65" x2="122.05" y1="72" y2="72" fill="none" stroke="#787878" stroke-linecap="round" stroke-linejoin="round" stroke-width=".7"/><rect id="connector13pin" width="14.4" height=".7" x="108" y="71.65" fill="none"/><rect id="connector13terminal" width="0" height=".7" x="122.4" y="71.65" fill="none"/><text id="label13" fill="#8C8C8C" font-family="'DroidSans'" font-size="3.5" transform="matrix(1 0 0 1 92.3533 72.7002)">USB1.DN</text><line x1="107.65" x2="122.05" y1="79.2" y2="79.2" fill="none" stroke="#787878" stroke-linecap="round" stroke-linejoin="round" stroke-width=".7"/><rect id="connector47pin" width="14.4" height=".7" x="108" y="78.85" fill="none"/><rect id="connector47terminal" width="0" height=".7" x="122.4" y="78.85" fill="none"/><text id="label47" fill="#8C8C8C" font-family="'DroidSans'" font-size="3.5" transform="matrix(1 0 0 1 91.7927 79.8994)">UART4.TX</text><line x1="107.65" x2="122.05" y1="86.4" y2="86.4" fill="none" stroke="#787878" stroke-linecap="round" stroke-linejoin="round" stroke-width=".7"/><rect id="connector45pin" width="14.4" height=".7" x="108" y="86.05" fill="none"/><rect id="connector45terminal" width="0" height=".7" x="122.4" y="86.05" fill="none"/><text id="label45" fill="#8C8C8C" font-family="'DroidSans'" font-size="3.5" transform="matrix(1 0 0 1 91.3708 87.0996)">UART4.RX</text><line x1="107.65" x2="122.05" y1="93.6" y2="93.6" fill="none" stroke="#787878" stroke-linecap="round" stroke-linejoin="round" stroke-width=".7"/><rect id="connector34pin" width="14.4" height=".7" x="108" y="93.25" fill="none"/><rect id="connector34terminal" width="0" height=".7" x="122.4" y="93.25" fill="none"/><text id="label34" fill="#8C8C8C" font-family="'DroidSans'" font-size="3.5" transform="matrix(1 0 0 1 91.7927 94.2998)">UART0.TX</text><line x1="107.65" x2="122.05" y1="100.8" y2="100.8" fill="none" stroke="#787878" stroke-linecap="round" stroke-linejoin="round" stroke-width=".7"/><rect id="connector36pin" width="14.4" height=".7" x="108" y="100.45" fill="none"/><rect id="connector36terminal" width="0" height=".7" x="122.4" y="100.45" fill="none"/><text id="label36" fill="#8C8C8C" font-family="'DroidSans'" font-size="3.5" transform="matrix(1 0 0 1 91.3708 101.5)">UART0.RX</text><line x1="107.65" x2="122.05" y1="108" y2="108" fill="none" stroke="#787878" stroke-linecap="round" stroke-linejoin="round" stroke-width=".7"/><rect id="connector65pin" width="14.4" height=".7" x="108" y="107.65" fill="none"/><rect id="connector65terminal" width="0" height=".7" x="122.4" y="107.65" fill="none"/><text id="label65" fill="#8C8C8C" font-family="'DroidSans'" font-size="3.5" transform="matrix(1 0 0 1 90.0691 108.7002)">SPI1.MOSI</text><line x1="107.65" x2="122.05" y1="115.2" y2="115.2" fill="none" stroke="#787878" stroke-linecap="round" stroke-linejoin="round" stroke-width=".7"/><rect id="connector67pin" width="14.4" height=".7" x="108" y="114.85" fill="none"/><rect id="connector67terminal" width="0" height=".7" x="122.4" y="114.85" fill="none"/><text id="label67" fill="#8C8C8C" font-family="'DroidSans'" font-size="3.5" transform="matrix(1 0 0 1 90.0691 115.9004)">SPI1.MISO</text><line x1="107.65" x2="122.05" y1="122.4" y2="122.4" fill="none" stroke="#787878" stroke-linecap="round" stroke-linejoin="round" stroke-width=".7"/><rect id="connector71pin" width="14.4" height=".7" x="108" y="122.05" fill="none"/><rect id="connector71terminal" width="0" height=".7" x="122.4" y="122.05" fill="none"/><text id="label71" fill="#8C8C8C" font-family="'DroidSans'" font-size="3.5" transform="matrix(1 0 0 1 94.8914 123.0996)">SPI1.CS</text><line x1="107.65" x2="122.05" y1="129.6" y2="129.6" fill="none" stroke="#787878" stroke-linecap="round" stroke-linejoin="round" stroke-width=".7"/><rect id="connector69pin" width="14.4" height=".7" x="108" y="129.25" fill="none"/><rect id="connector69terminal" width="0" height=".7" x="122.4" y="129.25" fill="none"/><text id="label69" fill="#8C8C8C" font-family="'DroidSans'" font-size="3.5" transform="matrix(1 0 0 1 92.9617 130.2998)">SPI1.CLK</text><line x1="107.65" x2="122.05" y1="136.8" y2="136.8" fill="none" stroke="#787878" stroke-linecap="round" stroke-linejoin="round" stroke-width=".7"/><rect id="connector16pin" width="14.4" height=".7" x="108" y="136.45" fill="none"/><rect id="connector16terminal" width="0" height=".7" x="122.4" y="136.45" fill="none"/><text id="label16" fill="#8C8C8C" font-family="'DroidSans'" font-size="3.5" transform="matrix(1 0 0 1 90.0691 137.5)">SPI0.MOSI</text><line x1="107.65" x2="122.05" y1="144" y2="144" fill="none" stroke="#787878" stroke-linecap="round" stroke-linejoin="round" stroke-width=".7"/><rect id="connector14pin" width="14.4" height=".7" x="108" y="143.65" fill="none"/><rect id="connector14terminal" width="0" height=".7" x="122.4" y="143.65" fill="none"/><text id="label14" fill="#8C8C8C" font-family="'DroidSans'" font-size="3.5" transform="matrix(1 0 0 1 90.0691 144.7002)">SPI0.MISO</text><line x1="107.65" x2="122.05" y1="151.2" y2="151.2" fill="none" stroke="#787878" stroke-linecap="round" stroke-linejoin="round" stroke-width=".7"/><rect id="connector10pin" width="14.4" height=".699" x="108" y="150.85" fill="none"/><rect id="connector10terminal" width="0" height=".699" x="122.4" y="150.85" fill="none"/><text id="label10" fill="#8C8C8C" font-family="'DroidSans'" font-size="3.5" transform="matrix(1 0 0 1 94.8914 151.9009)">SPI0.CS</text><line x1="107.65" x2="122.05" y1="158.4" y2="158.4" fill="none" stroke="#787878" stroke-linecap="round" stroke-linejoin="round" stroke-width=".7"/><rect id="connector12pin" width="14.4" height=".701" x="108" y="158.049" fill="none"/><rect id="connector12terminal" width="0" height=".701" x="122.4" y="158.049" fill="none"/><text id="label12" fill="#8C8C8C" font-family="'DroidSans'" font-size="3.5" transform="matrix(1 0 0 1 92.9617 159.1001)">SPI0.CLK</text><line x1="107.65" x2="122.05" y1="165.6" y2="165.6" fill="none" stroke="#787878" stroke-linecap="round" stroke-linejoin="round" stroke-width=".7"/><rect id="connector66pin" width="14.4" height=".699" x="108" y="165.25" fill="none"/><rect id="connector66terminal" width="0" height=".699" x="122.4" y="165.25" fill="none"/><text id="label66" fill="#8C8C8C" font-family="'DroidSans'" font-size="3.5" transform="matrix(1 0 0 1 94.946 166.2993)">RESET#</text><line x1="107.65" x2="122.05" y1="172.799" y2="172.799" fill="none" stroke="#787878" stroke-linecap="round" stroke-linejoin="round" stroke-width=".7"/><rect id="connector41pin" width="14.4" height=".7" x="108" y="172.45" fill="none"/><rect id="connector41terminal" width="0" height=".7" x="122.4" y="172.45" fill="none"/><text id="label41" fill="#8C8C8C" font-family="'DroidSans'" font-size="3.5" transform="matrix(1 0 0 1 94.3894 173.5005)">PWM1A</text><line x1="107.65" x2="122.05" y1="180" y2="180" fill="none" stroke="#787878" stroke-linecap="round" stroke-linejoin="round" stroke-width=".7"/><rect id="connector40pin" width="14.4" height=".7" x="108" y="179.65" fill="none"/><rect id="connector40terminal" width="0" height=".7" x="122.4" y="179.65" fill="none"/><text id="label40" fill="#8C8C8C" font-family="'DroidSans'" font-size="3.5" transform="matrix(1 0 0 1 94.3894 180.6997)">PWM0A</text><line x1="107.65" x2="122.05" y1="187.2" y2="187.2" fill="none" stroke="#787878" stroke-linecap="round" stroke-linejoin="round" stroke-width=".7"/><rect id="connector39pin" width="14.4" height=".699" x="108" y="186.85" fill="none"/><rect id="connector39terminal" width="0" height=".699" x="122.4" y="186.85" fill="none"/><text id="label39" fill="#8C8C8C" font-family="'DroidSans'" font-size="3.5" transform="matrix(1 0 0 1 93.3533 187.9009)">PRU1.10</text><line x1="107.65" x2="122.05" y1="194.4" y2="194.4" fill="none" stroke="#787878" stroke-linecap="round" stroke-linejoin="round" stroke-width=".7"/><rect id="connector33pin" width="14.4" height=".701" x="108" y="194.049" fill="none"/><rect id="connector33terminal" width="0" height=".701" x="122.4" y="194.049" fill="none"/><text id="label33" fill="#8C8C8C" font-family="'DroidSans'" font-size="3.5" transform="matrix(1 0 0 1 95.281 195.1001)">PRU0.7</text><line x1="107.65" x2="122.05" y1="201.6" y2="201.6" fill="none" stroke="#787878" stroke-linecap="round" stroke-linejoin="round" stroke-width=".7"/><rect id="connector68pin" width="14.4" height=".699" x="108" y="201.25" fill="none"/><rect id="connector68terminal" width="0" height=".699" x="122.4" y="201.25" fill="none"/><text id="label68" fill="#8C8C8C" font-family="'DroidSans'" font-size="3.5" transform="matrix(1 0 0 1 95.281 202.2993)">PRU0.6</text><line x1="107.65" x2="122.05" y1="208.799" y2="208.799" fill="none" stroke="#787878" stroke-linecap="round" stroke-linejoin="round" stroke-width=".7"/><rect id="connector74pin" width="14.4" height=".7" x="108" y="208.45" fill="none"/><rect id="connector74terminal" width="0" height=".7" x="122.4" y="208.45" fill="none"/><text id="label74" fill="#8C8C8C" font-family="'DroidSans'" font-size="3.5" transform="matrix(1 0 0 1 95.281 209.5005)">PRU0.5</text><line x1="107.65" x2="122.05" y1="216" y2="216" fill="none" stroke="#787878" stroke-linecap="round" stroke-linejoin="round" stroke-width=".7"/><rect id="connector35pin" width="14.4" height=".7" x="108" y="215.65" fill="none"/><rect id="connector35terminal" width="0" height=".7" x="122.4" y="215.65" fill="none"/><text id="label35" fill="#8C8C8C" font-family="'DroidSans'" font-size="3.5" transform="matrix(1 0 0 1 95.281 216.6997)">PRU0.4</text><line x1="107.65" x2="122.05" y1="223.2" y2="223.2" fill="none" stroke="#787878" stroke-linecap="round" stroke-linejoin="round" stroke-width=".7"/><rect id="connector70pin" width="14.4" height=".699" x="108" y="222.85" fill="none"/><rect id="connector70terminal" width="0" height=".699" x="122.4" y="222.85" fill="none"/><text id="label70" fill="#8C8C8C" font-family="'DroidSans'" font-size="3.5" transform="matrix(1 0 0 1 95.281 223.9009)">PRU0.3</text><line x1="107.65" x2="122.05" y1="230.4" y2="230.4" fill="none" stroke="#787878" stroke-linecap="round" stroke-linejoin="round" stroke-width=".7"/><rect id="connector72pin" width="14.4" height=".701" x="108" y="230.049" fill="none"/><rect id="connector72terminal" width="0" height=".701" x="122.4" y="230.049" fill="none"/><text id="label72" fill="#8C8C8C" font-family="'DroidSans'" font-size="3.5" transform="matrix(1 0 0 1 95.281 231.1001)">PRU0.2</text><line x1="107.65" x2="122.05" y1="237.6" y2="237.6" fill="none" stroke="#787878" stroke-linecap="round" stroke-linejoin="round" stroke-width=".7"/><rect id="connector37pin" width="14.4" height=".699" x="108" y="237.25" fill="none"/><rect id="connector37terminal" width="0" height=".699" x="122.4" y="237.25" fill="none"/><text id="label37" fill="#8C8C8C" font-family="'DroidSans'" font-size="3.5" transform="matrix(1 0 0 1 95.281 238.2993)">PRU0.1</text><line x1="107.65" x2="122.05" y1="244.799" y2="244.799" fill="none" stroke="#787878" stroke-linecap="round" stroke-linejoin="round" stroke-width=".7"/><rect id="connector32pin" width="14.4" height=".7" x="108" y="244.45" fill="none"/><rect id="connector32terminal" width="0" height=".7" x="122.4" y="244.45" fill="none"/><text id="label32" fill="#8C8C8C" font-family="'DroidSans'" font-size="3.5" transform="matrix(1 0 0 1 92.863 245.5005)">I2C2.SCL</text><line x1="107.65" x2="122.05" y1="252" y2="252" fill="none" stroke="#787878" stroke-linecap="round" stroke-linejoin="round" stroke-width=".7"/><rect id="connector30pin" width="14.4" height=".7" x="108" y="251.65" fill="none"/><rect id="connector30terminal" width="0" height=".7" x="122.4" y="251.65" fill="none"/><text id="label30" fill="#8C8C8C" font-family="'DroidSans'" font-size="3.5" transform="matrix(1 0 0 1 92.2048 252.6997)">I2C2.SDA</text><line x1="107.65" x2="122.05" y1="259.2" y2="259.2" fill="none" stroke="#787878" stroke-linecap="round" stroke-linejoin="round" stroke-width=".7"/><rect id="connector49pin" width="14.4" height=".699" x="108" y="258.85" fill="none"/><rect id="connector49terminal" width="0" height=".699" x="122.4" y="258.85" fill="none"/><text id="label49" fill="#8C8C8C" font-family="'DroidSans'" font-size="3.5" transform="matrix(1 0 0 1 92.863 259.9009)">I2C1.SCL</text><line x1="107.65" x2="122.05" y1="266.4" y2="266.4" fill="none" stroke="#787878" stroke-linecap="round" stroke-linejoin="round" stroke-width=".7"/><rect id="connector51pin" width="14.4" height=".701" x="108" y="266.049" fill="none"/><rect id="connector51terminal" width="0" height=".701" x="122.4" y="266.049" fill="none"/><text id="label51" fill="#8C8C8C" font-family="'DroidSans'" font-size="3.5" transform="matrix(1 0 0 1 92.2048 267.1001)">I2C1.SDA</text><line x1="43.2" x2="43.2" y1=".35" y2="14.4" fill="none" stroke="#787878" stroke-linecap="round" stroke-linejoin="round" stroke-width=".7"/><rect id="connector5pin" width=".699" height="14.4" x="42.85" fill="none"/><polygon id="connector5terminal" fill="none" points="42.85 0 43.55 0 43.55 0"/><text id="label5" fill="#8C8C8C" font-family="'DroidSans'" font-size="3.5" transform="matrix(-1.836970e-016 -1 1 -1.836970e-016 44.5994 21.7251)">VIN</text><line x1="50.4" x2="50.4" y1=".35" y2="14.4" fill="none" stroke="#787878" stroke-linecap="round" stroke-linejoin="round" stroke-width=".7"/><rect id="connector18pin" width=".7" height="14.4" x="50.05" fill="none"/><polygon id="connector18terminal" fill="none" points="50.05 0 50.75 0 50.75 0"/><text id="label18" fill="#8C8C8C" font-family="'DroidSans'" font-size="3.5" transform="matrix(-1.836970e-016 -1 1 -1.836970e-016 51.7996 22.7817)">3.3V</text><line x1="57.6" x2="57.6" y1=".35" y2="14.4" fill="none" stroke="#787878" stroke-linecap="round" stroke-linejoin="round" stroke-width=".7"/><rect id="connector28pin" width=".7" height="14.4" x="57.25" fill="none"/><polygon id="connector28terminal" fill="none" points="57.25 0 57.95 0 57.95 0"/><text id="label28" fill="#8C8C8C" font-family="'DroidSans'" font-size="3.5" transform="matrix(-1.836970e-016 -1 1 -1.836970e-016 58.9998 24.7759)">VOUT</text><line x1="64.8" x2="64.8" y1=".35" y2="14.4" fill="none" stroke="#787878" stroke-linecap="round" stroke-linejoin="round" stroke-width=".7"/><rect id="connector90pin" width=".7" height="14.4" x="64.45" fill="none"/><polygon id="connector54terminal" fill="none" points="64.45 0 65.15 0 65.15 0"/><text id="label54" fill="#8C8C8C" font-family="'DroidSans'" font-size="3.5" transform="matrix(-1.836970e-016 -1 1 -1.836970e-016 66.2 28.2231)">BAT.VIN</text><line x1="57.6" x2="57.6" y1="280.799" y2="294.85" fill="none" stroke="#787878" stroke-linecap="round" stroke-linejoin="round" stroke-width=".7"/><rect id="connector19pin" width=".7" height="14.4" x="57.25" y="280.799" fill="none"/><polygon id="connector19terminal" fill="none" points="57.25 295.2 57.95 295.2 57.95 295.2"/><text id="label19" fill="#8C8C8C" font-family="'DroidSans'" font-size="3.5" transform="matrix(-1.836970e-016 -1 1 -1.836970e-016 58.9998 279.1997)">GND</text><rect id="connector53pin" width=".7" height="14.4" x="57.25" fill="none"/><polygon id="connector53terminal" fill="none" points="57.25 0 57.95 0 57.95 0"/><rect id="connector63pin" width=".7" height="14.4" x="50.05" fill="none"/><polygon id="connector63terminal" fill="none" points="50.05 0 50.75 0 50.75 0"/><rect id="connector20pin" width=".7" height="14.4" x="57.25" y="280.799" fill="none"/><polygon id="connector20terminal" fill="none" points="57.25 295.2 57.95 295.2 57.95 295.2"/><rect id="connector26pin" width=".7" height="14.4" x="57.25" y="280.799" fill="none"/><polygon id="connector26terminal" fill="none" points="57.25 295.2 57.95 295.2 57.95 295.2"/><rect id="connector55pin" width=".7" height="14.4" x="57.25" y="280.799" fill="none"/><polygon id="connector55terminal" fill="none" points="57.25 295.2 57.95 295.2 57.95 295.2"/><rect id="connector61pin" width=".7" height="14.4" x="57.25" y="280.799" fill="none"/><polygon id="connector61terminal" fill="none" points="57.25 295.2 57.95 295.2 57.95 295.2"/></g></svg>