<svg xmlns="http://www.w3.org/2000/svg" xmlns:xml="http://www.w3.org/XML/1998/namespace" id="Ebene_1" width="210.52" height="132.284" x="0" y="0" enable-background="new 0 0 157.89 99.213" gorn="0" version="1.1" viewBox="0 0 157.89 99.213" xml:space="preserve"><desc><referenceFile>PocketBeagle_pcb.svg</referenceFile></desc><desc>Fritzing footprint generated by brd2svg</desc><g id="silkscreen" gorn=".2"><path fill="none" stroke="#FFF" stroke-width=".576" d="M129.359,0.288c15.496-0.102,28.141,12.378,28.242,27.873c0.002,0.104,0.002,0.206,0.001,0.31v42.272c0.068,15.496-12.438,28.113-27.935,28.182c-0.103,0.001-0.205,0.001-0.309,0H30.508C15.012,99.027,2.367,86.548,2.265,71.052c0-0.103,0-0.206,0-0.309V28.47C2.196,12.974,14.703,0.356,30.199,0.288c0.103-0.001,0.206,0,0.309,0H129.359"/><circle cx="94.865" cy="79.773" r=".509" fill="none" stroke="#FFF" stroke-width="1.417"/><g><title>element:P1</title><g><title>package:TH-2X18-(35MIL-DIA)-W/O-SILK</title></g></g><g><title>element:P2</title><g><title>package:TH-2X18-(35MIL-DIA)-W/O-SILK</title></g></g><g><title>element:U1</title><g><title>package:OSD335X-BGA-256</title><g><g><line x1="34.747" x2="34.747" y1="19.656" y2="23.156" fill="none" stroke="#FFF" stroke-linecap="round" stroke-width=".36"/><line x1="34.747" x2="34.747" y1="30.66" y2="71.93" fill="none" stroke="#FFF" stroke-dasharray="7.504 7.504" stroke-linecap="round" stroke-width=".36"/><line x1="34.747" x2="34.747" y1="75.682" y2="79.182" fill="none" stroke="#FFF" stroke-linecap="round" stroke-width=".36"/></g></g><g><g><line x1="34.747" x2="38.247" y1="79.182" y2="79.182" fill="none" stroke="#FFF" stroke-linecap="round" stroke-width=".36"/><line x1="45.751" x2="87.023" y1="79.182" y2="79.182" fill="none" stroke="#FFF" stroke-dasharray="7.504 7.504" stroke-linecap="round" stroke-width=".36"/><line x1="90.775" x2="94.275" y1="79.182" y2="79.182" fill="none" stroke="#FFF" stroke-linecap="round" stroke-width=".36"/></g></g><g><g><line x1="94.275" x2="94.275" y1="79.182" y2="75.682" fill="none" stroke="#FFF" stroke-linecap="round" stroke-width=".36"/><line x1="94.275" x2="94.275" y1="68.178" y2="26.908" fill="none" stroke="#FFF" stroke-dasharray="7.504 7.504" stroke-linecap="round" stroke-width=".36"/><line x1="94.275" x2="94.275" y1="23.156" y2="19.656" fill="none" stroke="#FFF" stroke-linecap="round" stroke-width=".36"/></g></g><g><g><line x1="94.275" x2="90.775" y1="19.656" y2="19.656" fill="none" stroke="#FFF" stroke-linecap="round" stroke-width=".36"/><line x1="83.271" x2="41.999" y1="19.656" y2="19.656" fill="none" stroke="#FFF" stroke-dasharray="7.504 7.504" stroke-linecap="round" stroke-width=".36"/><line x1="38.247" x2="34.747" y1="19.656" y2="19.656" fill="none" stroke="#FFF" stroke-linecap="round" stroke-width=".36"/></g></g></g></g><g><title>element:X2</title><g><title>package:microsd-simple</title><g><g><line x1="111.419" x2="114.919" y1="28.361" y2="28.361" fill="none" stroke="#FFF" stroke-linecap="round" stroke-width=".36"/><line x1="121.368" x2="143.936" y1="28.361" y2="28.361" fill="none" stroke="#FFF" stroke-dasharray="6.448 6.448" stroke-linecap="round" stroke-width=".36"/><line x1="147.16" x2="150.66" y1="28.361" y2="28.361" fill="none" stroke="#FFF" stroke-linecap="round" stroke-width=".36"/></g></g><g><g><line x1="150.66" x2="150.66" y1="28.361" y2="31.861" fill="none" stroke="#FFF" stroke-linecap="round" stroke-width=".36"/><line x1="150.66" x2="150.66" y1="32.036" y2="35.536" fill="none" stroke="#FFF" stroke-linecap="round" stroke-width=".36"/></g></g><g><path fill="none" stroke="#FFF" stroke-dasharray="2.893" stroke-width=".36" d="M150.139,38.37c0.345-0.905,0.521-1.866,0.521-2.834"/></g><g><g><path fill="none" stroke="#FFF" stroke-width=".36" d="M150.139,38.37c-0.417,1.094-0.779,2.205-1.087,3.331"/><path fill="none" stroke="#FFF" stroke-width=".36" d="M147.951,47.686c-0.113,1.161-0.171,2.329-0.171,3.499"/></g></g><g><g><line x1="147.78" x2="147.78" y1="51.185" y2="54.685" fill="none" stroke="#FFF" stroke-linecap="round" stroke-width=".36"/><line x1="147.78" x2="147.78" y1="58.904" y2="65.231" fill="none" stroke="#FFF" stroke-dasharray="4.218 4.218" stroke-linecap="round" stroke-width=".36"/><line x1="147.78" x2="147.78" y1="67.341" y2="70.841" fill="none" stroke="#FFF" stroke-linecap="round" stroke-width=".36"/></g></g><g><g><line x1="147.78" x2="144.28" y1="70.841" y2="70.841" fill="none" stroke="#FFF" stroke-linecap="round" stroke-width=".36"/><line x1="137.76" x2="114.94" y1="70.841" y2="70.841" fill="none" stroke="#FFF" stroke-dasharray="6.52 6.52" stroke-linecap="round" stroke-width=".36"/><line x1="111.68" x2="108.18" y1="70.841" y2="70.841" fill="none" stroke="#FFF" stroke-linecap="round" stroke-width=".36"/></g></g><g><g><line x1="108.18" x2="108.18" y1="70.841" y2="67.341" fill="none" stroke="#FFF" stroke-linecap="round" stroke-width=".36"/><line x1="108.18" x2="108.18" y1="61.037" y2="38.973" fill="none" stroke="#FFF" stroke-dasharray="6.304 6.304" stroke-linecap="round" stroke-width=".36"/><line x1="108.18" x2="108.18" y1="35.821" y2="32.321" fill="none" stroke="#FFF" stroke-linecap="round" stroke-width=".36"/></g></g><g><line x1="108.18" x2="111.419" y1="32.321" y2="32.321" fill="none" stroke="#FFF" stroke-dasharray="3.239" stroke-linecap="round" stroke-width=".36"/></g><g><line x1="111.419" x2="111.419" y1="32.321" y2="28.361" fill="none" stroke="#FFF" stroke-dasharray="3.96" stroke-linecap="round" stroke-width=".36"/></g></g></g><line x1=".288" x2="1.984" y1="60.236" y2="60.236" fill="none" stroke="#FFF" stroke-width=".576"/><line x1=".288" x2="1.984" y1="38.976" y2="38.976" fill="none" stroke="#FFF" stroke-width=".576"/><line x1=".288" x2=".288" y1="60.236" y2="38.976" fill="none" stroke="#FFF" stroke-width=".576"/><g><g><text fill="#FFF" font-family="Droid Sans" font-size="3" transform="matrix(1 0 0 1 37.4448 76.4812)">pocketBeagle</text></g></g></g><g id="copper1" gorn=".3"><g id="copper0" gorn="0.3.0"><circle id="connector5pad" cx="18.737" cy="89.207" r="1.71" fill="none" stroke="#F7BD13" stroke-width=".9" gorn="0.3.0.0"/><rect width="3.42" height="3.42" x="17.027" y="87.497" fill="none" stroke="#F7BD13" stroke-width=".9"/><circle id="connector76pad" cx="141.137" cy="10.007" r="1.71" fill="none" stroke="#F7BD13" stroke-width=".9" gorn="0.3.0.2"/><circle id="connector74pad" cx="133.937" cy="10.007" r="1.71" fill="none" stroke="#F7BD13" stroke-width=".9" gorn="0.3.0.3"/><circle id="connector72pad" cx="126.737" cy="10.007" r="1.71" fill="none" stroke="#F7BD13" stroke-width=".9" gorn="0.3.0.4"/><circle id="connector75pad" cx="141.137" cy="17.207" r="1.71" fill="none" stroke="#F7BD13" stroke-width=".9" gorn="0.3.0.5"/><circle id="connector70pad" cx="119.537" cy="10.007" r="1.71" fill="none" stroke="#F7BD13" stroke-width=".9" gorn="0.3.0.6"/><circle id="connector73pad" cx="133.937" cy="17.207" r="1.71" fill="none" stroke="#F7BD13" stroke-width=".9" gorn="0.3.0.7"/><circle id="connector68pad" cx="112.337" cy="10.007" r="1.71" fill="none" stroke="#F7BD13" stroke-width=".9" gorn="0.3.0.8"/><circle id="connector71pad" cx="126.737" cy="17.207" r="1.71" fill="none" stroke="#F7BD13" stroke-width=".9" gorn="0.3.0.9"/><circle id="connector66pad" cx="105.137" cy="10.007" r="1.71" fill="none" stroke="#F7BD13" stroke-width=".9" gorn="0.3.0.10"/><circle id="connector69pad" cx="119.537" cy="17.207" r="1.71" fill="none" stroke="#F7BD13" stroke-width=".9" gorn="0.3.0.11"/><circle id="connector64pad" cx="97.937" cy="10.007" r="1.71" fill="none" stroke="#F7BD13" stroke-width=".9" gorn="0.3.0.12"/><circle id="connector67pad" cx="112.337" cy="17.207" r="1.71" fill="none" stroke="#F7BD13" stroke-width=".9" gorn="0.3.0.13"/><circle id="connector62pad" cx="90.738" cy="10.007" r="1.71" fill="none" stroke="#F7BD13" stroke-width=".9" gorn="0.3.0.14"/><circle id="connector65pad" cx="105.137" cy="17.207" r="1.71" fill="none" stroke="#F7BD13" stroke-width=".9" gorn="0.3.0.15"/><circle id="connector60pad" cx="83.537" cy="10.007" r="1.71" fill="none" stroke="#F7BD13" stroke-width=".9" gorn="0.3.0.16"/><circle id="connector63pad" cx="97.937" cy="17.207" r="1.71" fill="none" stroke="#F7BD13" stroke-width=".9" gorn="0.3.0.17"/><circle id="connector58pad" cx="76.337" cy="10.007" r="1.71" fill="none" stroke="#F7BD13" stroke-width=".9" gorn="0.3.0.18"/><circle id="connector61pad" cx="90.738" cy="17.207" r="1.71" fill="none" stroke="#F7BD13" stroke-width=".9" gorn="0.3.0.19"/><circle id="connector56pad" cx="69.137" cy="10.007" r="1.71" fill="none" stroke="#F7BD13" stroke-width=".9" gorn="0.3.0.20"/><circle id="connector59pad" cx="83.537" cy="17.207" r="1.71" fill="none" stroke="#F7BD13" stroke-width=".9" gorn="0.3.0.21"/><circle id="connector90pin" cx="61.937" cy="10.007" r="1.71" fill="none" stroke="#F7BD13" stroke-width=".9" gorn="0.3.0.22"/><circle id="connector57pad" cx="76.337" cy="17.207" r="1.71" fill="none" stroke="#F7BD13" stroke-width=".9" gorn="0.3.0.23"/><circle id="connector52pad" cx="54.737" cy="10.007" r="1.71" fill="none" stroke="#F7BD13" stroke-width=".9" gorn="0.3.0.24"/><circle id="connector55pad" cx="69.137" cy="17.207" r="1.71" fill="none" stroke="#F7BD13" stroke-width=".9" gorn="0.3.0.25"/><circle id="connector50pad" cx="47.537" cy="10.007" r="1.71" fill="none" stroke="#F7BD13" stroke-width=".9" gorn="0.3.0.26"/><circle id="connector53pad" cx="61.937" cy="17.207" r="1.71" fill="none" stroke="#F7BD13" stroke-width=".9" gorn="0.3.0.27"/><circle id="connector48pad" cx="40.337" cy="10.007" r="1.71" fill="none" stroke="#F7BD13" stroke-width=".9" gorn="0.3.0.28"/><circle id="connector51pad" cx="54.737" cy="17.207" r="1.71" fill="none" stroke="#F7BD13" stroke-width=".9" gorn="0.3.0.29"/><circle id="connector46pad" cx="33.137" cy="10.007" r="1.71" fill="none" stroke="#F7BD13" stroke-width=".9" gorn="0.3.0.30"/><circle id="connector49pad" cx="47.537" cy="17.207" r="1.71" fill="none" stroke="#F7BD13" stroke-width=".9" gorn="0.3.0.31"/><circle id="connector44pad" cx="25.937" cy="10.007" r="1.71" fill="none" stroke="#F7BD13" stroke-width=".9" gorn="0.3.0.32"/><circle id="connector47pad" cx="40.337" cy="17.207" r="1.71" fill="none" stroke="#F7BD13" stroke-width=".9" gorn="0.3.0.33"/><circle id="connector42pad" cx="18.737" cy="10.007" r="1.71" fill="none" stroke="#F7BD13" stroke-width=".9" gorn="0.3.0.34"/><circle id="connector45pad" cx="33.137" cy="17.207" r="1.71" fill="none" stroke="#F7BD13" stroke-width=".9" gorn="0.3.0.35"/><circle id="connector40pad" cx="141.137" cy="82.007" r="1.71" fill="none" stroke="#F7BD13" stroke-width=".9" gorn="0.3.0.36"/><circle id="connector43pad" cx="25.937" cy="17.207" r="1.71" fill="none" stroke="#F7BD13" stroke-width=".9" gorn="0.3.0.37"/><circle id="connector38pad" cx="133.937" cy="82.007" r="1.71" fill="none" stroke="#F7BD13" stroke-width=".9" gorn="0.3.0.38"/><circle id="connector41pad" cx="18.737" cy="17.207" r="1.71" fill="none" stroke="#F7BD13" stroke-width=".9" gorn="0.3.0.39"/><rect width="3.42" height="3.42" x="17.027" y="15.497" fill="none" stroke="#F7BD13" stroke-width=".9"/><circle id="connector36pad" cx="126.737" cy="82.007" r="1.71" fill="none" stroke="#F7BD13" stroke-width=".9" gorn="0.3.0.41"/><circle id="connector39pad" cx="141.137" cy="89.207" r="1.71" fill="none" stroke="#F7BD13" stroke-width=".9" gorn="0.3.0.42"/><circle id="connector34pad" cx="119.537" cy="82.007" r="1.71" fill="none" stroke="#F7BD13" stroke-width=".9" gorn="0.3.0.43"/><circle id="connector37pad" cx="133.937" cy="89.207" r="1.71" fill="none" stroke="#F7BD13" stroke-width=".9" gorn="0.3.0.44"/><circle id="connector32pad" cx="112.337" cy="82.007" r="1.71" fill="none" stroke="#F7BD13" stroke-width=".9" gorn="0.3.0.45"/><circle id="connector35pad" cx="126.737" cy="89.207" r="1.71" fill="none" stroke="#F7BD13" stroke-width=".9" gorn="0.3.0.46"/><circle id="connector30pad" cx="105.137" cy="82.007" r="1.71" fill="none" stroke="#F7BD13" stroke-width=".9" gorn="0.3.0.47"/><circle id="connector33pad" cx="119.537" cy="89.207" r="1.71" fill="none" stroke="#F7BD13" stroke-width=".9" gorn="0.3.0.48"/><circle id="connector28pad" cx="97.937" cy="82.007" r="1.71" fill="none" stroke="#F7BD13" stroke-width=".9" gorn="0.3.0.49"/><circle id="connector31pad" cx="112.337" cy="89.207" r="1.71" fill="none" stroke="#F7BD13" stroke-width=".9" gorn="0.3.0.50"/><circle id="connector26pad" cx="90.738" cy="82.007" r="1.71" fill="none" stroke="#F7BD13" stroke-width=".9" gorn="0.3.0.51"/><circle id="connector29pad" cx="105.137" cy="89.207" r="1.71" fill="none" stroke="#F7BD13" stroke-width=".9" gorn="0.3.0.52"/><circle id="connector24pad" cx="83.537" cy="82.007" r="1.71" fill="none" stroke="#F7BD13" stroke-width=".9" gorn="0.3.0.53"/><circle id="connector27pad" cx="97.937" cy="89.207" r="1.71" fill="none" stroke="#F7BD13" stroke-width=".9" gorn="0.3.0.54"/><circle id="connector22pad" cx="76.337" cy="82.007" r="1.71" fill="none" stroke="#F7BD13" stroke-width=".9" gorn="0.3.0.55"/><circle id="connector25pad" cx="90.738" cy="89.207" r="1.71" fill="none" stroke="#F7BD13" stroke-width=".9" gorn="0.3.0.56"/><circle id="connector20pad" cx="69.137" cy="82.007" r="1.71" fill="none" stroke="#F7BD13" stroke-width=".9" gorn="0.3.0.57"/><circle id="connector23pad" cx="83.537" cy="89.207" r="1.71" fill="none" stroke="#F7BD13" stroke-width=".9" gorn="0.3.0.58"/><circle id="connector18pad" cx="61.937" cy="82.007" r="1.71" fill="none" stroke="#F7BD13" stroke-width=".9" gorn="0.3.0.59"/><circle id="connector21pad" cx="76.337" cy="89.207" r="1.71" fill="none" stroke="#F7BD13" stroke-width=".9" gorn="0.3.0.60"/><circle id="connector16pad" cx="54.737" cy="82.007" r="1.71" fill="none" stroke="#F7BD13" stroke-width=".9" gorn="0.3.0.61"/><circle id="connector19pad" cx="69.137" cy="89.207" r="1.71" fill="none" stroke="#F7BD13" stroke-width=".9" gorn="0.3.0.62"/><circle id="connector14pad" cx="47.537" cy="82.007" r="1.71" fill="none" stroke="#F7BD13" stroke-width=".9" gorn="0.3.0.63"/><circle id="connector17pad" cx="61.937" cy="89.207" r="1.71" fill="none" stroke="#F7BD13" stroke-width=".9" gorn="0.3.0.64"/><circle id="connector12pad" cx="40.337" cy="82.007" r="1.71" fill="none" stroke="#F7BD13" stroke-width=".9" gorn="0.3.0.65"/><circle id="connector15pad" cx="54.737" cy="89.207" r="1.71" fill="none" stroke="#F7BD13" stroke-width=".9" gorn="0.3.0.66"/><circle id="connector10pad" cx="33.137" cy="82.007" r="1.71" fill="none" stroke="#F7BD13" stroke-width=".9" gorn="0.3.0.67"/><circle id="connector13pad" cx="47.537" cy="89.207" r="1.71" fill="none" stroke="#F7BD13" stroke-width=".9" gorn="0.3.0.68"/><circle id="connector8pad" cx="25.937" cy="82.007" r="1.71" fill="none" stroke="#F7BD13" stroke-width=".9" gorn="0.3.0.69"/><circle id="connector11pad" cx="40.337" cy="89.207" r="1.71" fill="none" stroke="#F7BD13" stroke-width=".9" gorn="0.3.0.70"/><circle id="connector6pad" cx="18.737" cy="82.007" r="1.71" fill="none" stroke="#F7BD13" stroke-width=".9" gorn="0.3.0.71"/><circle id="connector9pad" cx="33.137" cy="89.207" r="1.71" fill="none" stroke="#F7BD13" stroke-width=".9" gorn="0.3.0.72"/><circle id="connector7pad" cx="25.937" cy="89.207" r="1.71" fill="none" stroke="#F7BD13" stroke-width=".9" gorn="0.3.0.73"/></g></g></svg>